<svg viewBox="0 0 860 660" fill="none" xmlns="http://www.w3.org/2000/svg" role="img" aria-label="Effective-potential contours of the restricted three-body problem with Lagrange points L1 to L5">
<g class="contours" stroke="#5996c8" stroke-width="1.3" opacity="0.92">
<path d="M423.8 623.2L420.9 623.0L417.1 622.7L413.3 622.3L410.4 622.0L406.6 621.6L403.7 621.2L399.9 620.6L397.0 620.2L393.2 619.5L390.3 619.0L387.4 618.4L383.6 617.6L380.7 616.9L377.9 616.3L375.0 615.6L371.7 614.7L368.3 613.7L365.4 612.9L362.6 612.0L359.7 611.1L356.8 610.2L353.9 609.2L351.1 608.2L348.2 607.2L345.6 606.2L343.2 605.2L340.6 604.2L337.7 603.0L334.8 601.7L332.1 600.5L330.0 599.6L327.2 598.2L324.3 596.8L322.2 595.8L319.5 594.4L316.8 593.0L314.7 591.9L311.9 590.3L309.9 589.2L307.1 587.5L305.1 586.4L302.3 584.6L300.4 583.4L297.6 581.6L295.6 580.3L293.4 578.8L290.8 577.0L288.9 575.7L286.7 574.1L284.1 572.2L282.2 570.7L280.3 569.3L278.0 567.5L275.7 565.6L273.6 563.8L271.7 562.2L269.8 560.6L267.9 558.9L265.8 557.1L263.8 555.2L261.8 553.3L259.8 551.4L257.9 549.5L256.0 547.6L254.2 545.8L252.4 543.9L250.6 542.0L248.7 539.9L246.8 537.7L244.9 535.5L243.2 533.5L241.6 531.6L240.1 529.7L238.2 527.4L236.4 525.0L234.9 523.1L233.4 521.0L231.5 518.4L230.2 516.5L228.6 514.2L227.0 511.8L225.7 509.9L223.9 507.0L222.8 505.2L221.1 502.3L220.0 500.4L218.4 497.6L217.2 495.4L215.8 492.9L214.4 490.0L213.3 488.0L212.0 485.3L210.7 482.5L209.5 479.7L208.5 477.5L207.5 474.9L206.3 472.1L205.3 469.3L204.2 466.4L203.3 463.6L202.3 460.8L201.5 457.9L200.7 455.1L199.9 452.3L199.0 448.5L198.4 445.7L197.8 442.8L197.2 439.1L196.9 436.2L196.5 432.4L196.4 428.7L196.5 424.9L197.1 421.2L198.0 418.5L199.8 416.4L202.8 415.9L205.7 416.9L208.0 418.3L210.5 420.1L212.4 421.6L214.3 423.2L216.2 424.9L218.3 426.8L220.3 428.7L222.4 430.6L224.4 432.4L226.4 434.3L228.5 436.2L230.5 438.1L232.5 439.8L234.4 441.5L236.3 443.1L238.2 444.8L240.4 446.6L242.6 448.5L244.9 450.3L246.8 451.9L248.7 453.4L251.0 455.1L253.5 457.0L255.4 458.4L257.4 459.8L260.1 461.7L262.1 463.1L264.4 464.5L266.9 466.2L268.8 467.4L271.7 469.2L273.6 470.3L276.5 472.0L278.4 473.1L281.2 474.7L283.5 475.9L286.0 477.2L288.9 478.6L291.1 479.7L293.7 480.9L296.6 482.2L299.4 483.4L301.7 484.4L304.2 485.4L307.1 486.5L309.9 487.6L312.8 488.6L315.7 489.6L318.6 490.5L321.4 491.4L324.3 492.2L327.2 493.0L330.3 493.8L333.9 494.7L336.7 495.3L339.6 495.9L343.4 496.7L346.3 497.2L349.2 497.6L353.0 498.2L356.0 498.5L359.7 498.9L363.5 499.3L366.4 499.5L370.2 499.7L374.0 499.9L377.9 499.9L381.7 499.9L385.5 499.9L389.3 499.7L393.2 499.5L396.0 499.3L399.9 498.9L403.5 498.5L406.6 498.2L410.4 497.6L413.3 497.2L416.2 496.7L420.0 495.9L422.8 495.3L425.7 494.7L429.3 493.8L432.4 493.0L435.3 492.3L438.1 491.4L441.0 490.6L443.9 489.7L446.7 488.7L449.6 487.7L452.5 486.7L455.4 485.6L458.2 484.4L460.7 483.4L463.0 482.5L465.9 481.2L468.7 479.9L471.3 478.7L473.5 477.7L476.4 476.2L479.0 474.9L481.2 473.8L484.0 472.3L486.1 471.2L488.8 469.6L491.1 468.3L493.6 466.9L496.0 465.5L498.4 464.0L500.7 462.7L503.2 461.1L505.2 459.8L508.0 458.1L509.9 456.9L512.6 455.1L514.7 453.8L516.9 452.3L519.4 450.6L521.4 449.4L524.2 447.6L526.1 446.3L528.6 444.7L530.9 443.3L533.2 441.9L535.7 440.4L537.9 439.1L540.5 437.6L543.1 436.2L545.3 435.1L548.1 433.7L551.0 432.4L553.4 431.5L556.0 430.6L558.9 429.6L562.5 428.7L565.4 428.1L568.2 427.6L572.1 427.2L575.9 427.0L579.7 427.0L583.5 427.1L587.4 427.5L590.2 427.8L594.1 428.4L596.9 428.9L600.8 429.6L603.6 430.2L606.5 430.9L609.4 431.6L612.7 432.4L616.1 433.4L618.9 434.3L621.8 435.2L624.7 436.2L627.2 437.2L629.5 438.1L632.3 439.4L635.2 440.8L637.1 441.9L640.0 443.7L641.9 445.0L643.8 446.6L645.9 448.5L647.6 450.4L649.5 452.9L651.0 455.1L652.4 457.9L653.4 460.3L654.3 463.5L655.0 466.4L655.3 469.3L655.6 473.0L655.5 476.8L655.3 479.8L654.8 483.4L654.3 486.3L653.5 490.0L652.7 492.9L651.8 495.7L650.9 498.5L649.8 501.4L648.7 504.2L647.6 506.6L646.6 508.9L645.2 511.8L643.8 514.5L642.7 516.5L641.1 519.3L640.0 521.2L638.2 524.0L637.0 525.9L635.2 528.7L633.8 530.6L632.3 532.7L630.4 535.3L628.9 537.3L627.4 539.1L625.6 541.4L623.7 543.6L621.9 545.8L620.2 547.6L618.5 549.5L616.7 551.4L614.9 553.3L613.0 555.2L611.1 557.1L609.1 559.0L607.1 560.9L605.0 562.7L602.9 564.6L600.8 566.5L598.8 568.1L596.9 569.6L594.9 571.2L592.5 573.1L590.2 574.9L588.3 576.3L586.1 577.9L583.5 579.7L581.6 581.0L579.3 582.6L576.8 584.2L574.9 585.4L572.1 587.2L570.1 588.3L567.3 590.0L565.4 591.1L562.5 592.7L560.3 593.9L557.7 595.3L554.8 596.7L552.9 597.7L550.1 599.1L547.2 600.4L544.9 601.5L542.4 602.6L539.5 603.8L536.7 605.0L533.8 606.1L531.1 607.1L528.6 608.1L526.0 609.0L523.3 610.0L520.4 610.9L517.5 611.8L514.4 612.8L511.2 613.7L508.0 614.6L505.1 615.4L502.2 616.1L499.4 616.8L496.3 617.5L492.7 618.3L489.8 618.9L486.9 619.4L483.1 620.1L480.2 620.6L476.4 621.1L473.5 621.5L469.7 622.0L466.8 622.3L463.0 622.7L459.2 623.0L456.3 623.2L452.5 623.4L448.7 623.5L444.8 623.6L441.0 623.7L437.2 623.7L433.3 623.6L429.5 623.5L425.7 623.3" pathLength="1" style="--i:0"/>
<path d="M199.9 243.7L198.2 241.7L197.1 238.9L196.6 236.1L196.4 232.3L196.5 228.5L196.8 224.7L197.1 221.9L197.7 218.1L198.2 215.3L199.0 211.6L199.7 208.7L200.4 205.8L201.2 203.0L202.0 200.2L202.9 197.3L203.9 194.5L204.9 191.7L206.0 188.8L207.1 186.0L208.2 183.2L209.5 180.3L210.5 178.1L211.6 175.6L213.0 172.8L214.3 170.1L215.3 168.1L216.8 165.2L218.1 162.9L219.4 160.5L221.0 157.9L222.2 155.8L223.8 153.1L225.1 151.1L226.7 148.6L228.2 146.4L229.6 144.4L231.5 141.6L232.8 139.7L234.4 137.7L236.3 135.1L237.8 133.1L239.3 131.2L241.1 129.1L243.0 126.7L244.8 124.6L246.4 122.7L248.1 120.9L249.8 119.0L251.6 117.0L253.5 115.0L255.4 113.0L257.3 111.0L259.2 109.2L261.2 107.3L263.1 105.5L265.0 103.7L266.9 102.0L269.0 100.1L271.2 98.2L273.4 96.3L275.5 94.6L277.4 93.0L279.3 91.5L281.6 89.7L284.1 87.8L286.0 86.4L288.0 85.0L290.6 83.1L292.7 81.6L294.8 80.3L297.5 78.4L299.4 77.2L302.1 75.5L304.2 74.2L306.7 72.7L309.0 71.4L311.6 69.9L313.8 68.7L316.6 67.1L318.6 66.1L321.4 64.6L324.1 63.3L326.2 62.2L329.1 60.9L331.9 59.6L334.2 58.5L336.7 57.4L339.6 56.2L342.5 55.1L345.3 53.9L348.1 52.9L350.7 51.9L353.3 51.0L356.1 50.0L358.9 49.1L361.9 48.2L365.0 47.2L368.2 46.3L371.2 45.5L374.0 44.7L376.9 44.0L379.8 43.3L383.2 42.5L386.5 41.8L389.3 41.2L392.6 40.6L396.0 40.0L398.9 39.5L402.7 38.9L405.6 38.6L409.4 38.1L412.3 37.8L416.1 37.4L420.0 37.1L423.4 36.8L426.7 36.6L430.5 36.5L434.3 36.4L438.1 36.3L442.0 36.3L445.8 36.4L449.6 36.5L453.4 36.7L456.3 36.8L460.1 37.1L464.0 37.4L467.5 37.8L470.7 38.1L474.5 38.6L477.4 39.0L481.2 39.6L484.0 40.1L487.0 40.6L490.7 41.3L493.6 41.9L496.5 42.5L500.3 43.4L503.2 44.1L506.1 44.9L508.9 45.6L511.8 46.4L514.7 47.3L517.5 48.2L520.4 49.1L523.3 50.0L526.1 51.0L529.0 52.1L531.9 53.2L534.7 54.3L537.6 55.4L540.5 56.6L542.7 57.6L545.3 58.7L548.1 60.0L551.0 61.4L552.9 62.3L555.8 63.8L558.5 65.2L560.6 66.3L563.4 67.8L565.4 68.9L568.2 70.5L570.3 71.8L573.0 73.4L574.9 74.6L577.8 76.5L579.7 77.7L582.1 79.3L584.5 81.0L586.4 82.3L588.7 84.0L591.2 85.9L593.1 87.3L595.0 88.8L597.3 90.6L599.6 92.5L601.7 94.4L603.6 96.0L605.5 97.7L607.5 99.5L609.4 101.3L611.3 103.1L613.2 105.0L615.1 106.9L617.0 108.9L618.9 111.0L620.8 113.1L622.7 115.2L624.3 117.1L625.9 119.0L627.5 121.0L629.5 123.4L631.1 125.6L632.5 127.5L634.2 130.0L635.8 132.2L637.1 134.2L638.8 136.9L640.0 138.8L641.6 141.6L642.8 143.8L644.2 146.4L645.7 149.2L646.7 151.3L647.9 153.9L649.1 156.7L650.2 159.6L651.2 162.4L652.1 165.2L653.0 168.1L653.7 170.9L654.3 173.8L655.0 177.5L655.3 180.3L655.6 184.1L655.5 187.9L655.3 191.3L654.8 194.5L654.1 197.3L653.2 200.2L652.0 203.0L650.5 205.7L649.1 207.7L647.6 209.6L645.7 211.7L643.8 213.4L641.5 215.3L639.0 217.0L637.1 218.1L634.2 219.7L631.6 220.9L629.5 221.9L626.6 223.1L623.7 224.1L620.8 225.1L618.0 226.0L615.1 226.9L612.2 227.7L609.1 228.5L605.5 229.4L602.7 230.0L599.8 230.6L596.0 231.3L593.1 231.8L589.6 232.3L586.4 232.6L582.6 232.9L578.8 233.0L574.9 233.0L571.1 232.7L567.4 232.3L564.4 231.7L561.5 231.1L558.7 230.3L555.8 229.4L552.9 228.3L550.1 227.1L547.2 225.8L544.9 224.7L542.4 223.4L539.6 221.9L537.6 220.8L534.7 219.1L532.8 217.9L530.1 216.2L528.1 214.9L525.7 213.4L523.3 211.8L521.3 210.6L518.5 208.7L516.6 207.5L514.1 205.8L511.8 204.4L509.7 203.0L507.0 201.3L505.1 200.1L502.2 198.3L500.3 197.1L497.6 195.5L495.5 194.2L492.8 192.6L490.7 191.4L487.9 189.8L486.0 188.8L483.1 187.2L480.8 186.0L478.3 184.7L475.4 183.3L473.3 182.2L470.7 181.0L467.8 179.6L465.1 178.5L462.9 177.5L460.1 176.3L457.3 175.2L454.4 174.1L451.5 173.0L448.7 172.0L445.8 171.0L442.9 170.0L440.0 169.1L437.2 168.3L434.3 167.5L431.4 166.7L428.6 166.0L425.4 165.2L421.9 164.5L419.0 163.9L416.1 163.3L412.3 162.7L409.4 162.2L405.6 161.7L402.7 161.4L398.9 161.0L395.1 160.6L392.2 160.4L388.4 160.2L384.6 160.1L380.7 160.1L376.9 160.1L373.1 160.2L369.3 160.3L366.2 160.5L362.6 160.8L358.7 161.1L355.9 161.5L352.0 162.0L349.0 162.4L345.3 163.0L342.5 163.5L338.6 164.3L335.8 164.9L332.9 165.5L330.0 166.3L326.7 167.1L323.3 168.1L320.5 168.9L317.6 169.8L314.7 170.8L311.9 171.7L309.0 172.8L306.4 173.7L304.0 174.7L301.3 175.8L298.5 177.0L295.6 178.2L293.1 179.4L290.8 180.5L287.9 181.9L285.4 183.2L283.2 184.3L280.3 185.9L278.3 187.0L275.5 188.6L273.4 189.8L270.7 191.4L268.8 192.6L265.9 194.4L264.0 195.7L261.5 197.3L259.2 198.9L257.3 200.3L254.8 202.1L252.5 203.7L250.6 205.2L248.5 206.8L246.1 208.7L243.9 210.4L242.0 212.0L240.1 213.6L238.1 215.3L235.9 217.2L233.8 219.1L231.7 220.9L229.6 222.8L227.7 224.5L225.8 226.3L223.8 228.1L221.9 229.8L220.0 231.6L218.1 233.4L216.2 235.1L214.0 237.0L211.8 238.9L209.5 240.7L207.6 242.0L204.7 243.6L201.8 244.2" pathLength="1" style="--i:1"/>
<path d="M435.3 627.0L432.4 626.9L428.6 626.8L424.7 626.6L420.9 626.4L417.1 626.1L414.2 625.8L410.4 625.4L407.2 625.1L403.7 624.6L400.2 624.1L397.0 623.6L394.1 623.2L390.3 622.5L387.4 621.9L384.3 621.3L380.7 620.5L377.9 619.9L375.0 619.2L372.1 618.4L368.6 617.5L365.4 616.6L362.6 615.8L359.7 614.9L356.8 614.0L353.9 613.0L351.1 612.1L348.2 611.0L345.3 610.0L342.8 609.0L340.4 608.1L337.7 607.0L334.8 605.8L331.9 604.5L329.2 603.3L327.2 602.4L324.3 601.1L321.4 599.7L319.3 598.6L316.6 597.3L313.9 595.8L311.9 594.7L309.0 593.1L307.0 592.0L304.2 590.4L302.1 589.2L299.4 587.5L297.5 586.3L294.6 584.5L292.7 583.3L290.3 581.6L287.9 580.1L286.0 578.7L283.5 576.9L281.2 575.3L279.3 573.9L277.1 572.2L274.7 570.3L272.6 568.7L270.7 567.1L268.8 565.5L266.6 563.7L264.4 561.8L262.3 559.9L260.2 558.0L258.3 556.3L256.4 554.5L254.5 552.6L252.5 550.7L250.6 548.8L248.7 546.9L246.8 544.9L245.0 542.9L243.2 541.0L241.5 539.1L239.9 537.3L238.2 535.3L236.3 533.1L234.4 530.8L232.7 528.8L231.2 526.9L229.6 524.7L227.7 522.2L226.2 520.3L224.8 518.3L222.9 515.6L221.5 513.6L220.0 511.4L218.4 508.9L217.2 507.0L215.4 504.2L214.2 502.3L212.5 499.5L211.4 497.6L209.8 494.8L208.5 492.6L207.2 490.0L205.7 487.2L204.7 485.3L203.3 482.5L201.9 479.7L200.9 477.4L199.7 474.9L198.5 472.1L197.3 469.3L196.1 466.4L195.2 464.0L194.2 461.6L193.2 458.9L192.2 456.1L191.2 453.2L190.2 450.4L189.3 447.6L188.5 444.7L187.5 441.5L186.6 438.1L185.8 435.3L185.1 432.4L184.4 429.6L183.7 426.2L183.0 423.0L182.5 420.2L181.8 416.4L181.3 413.6L180.8 410.2L180.4 407.0L179.9 403.2L179.6 400.3L179.2 396.6L178.9 392.8L178.7 390.0L178.6 386.2L178.4 382.4L178.4 378.6L178.4 374.8L178.4 371.1L178.5 367.3L178.7 363.5L178.9 360.4L179.2 356.9L179.5 353.1L179.8 349.9L180.3 346.5L180.8 342.7L181.2 339.9L181.8 336.4L182.4 333.3L182.6 329.5L182.2 325.8L181.7 322.9L181.1 319.1L180.7 316.3L180.2 312.5L179.8 309.7L179.4 305.9L179.1 302.1L178.9 299.3L178.7 295.5L178.5 291.8L178.4 288.0L178.3 284.2L178.4 280.4L178.5 276.7L178.6 272.9L178.8 269.1L179.0 266.3L179.3 262.5L179.7 258.7L180.0 255.9L180.5 252.1L180.9 249.3L181.5 245.5L181.9 242.7L182.6 238.9L183.2 236.1L183.8 233.2L184.6 229.6L185.3 226.6L186.1 223.8L186.8 220.9L187.6 218.1L188.5 215.3L189.4 212.2L190.4 209.2L191.3 206.3L192.3 203.6L193.2 201.0L194.2 198.3L195.3 195.5L196.5 192.6L197.7 189.8L198.9 187.0L199.9 184.7L201.0 182.2L202.4 179.4L203.8 176.6L204.7 174.7L206.2 171.8L207.6 169.2L208.7 167.1L210.3 164.3L211.4 162.4L213.1 159.6L214.3 157.5L216.0 154.8L217.2 153.0L219.0 150.1L220.3 148.2L221.9 145.8L223.5 143.5L224.9 141.6L226.7 139.1L228.3 136.9L229.8 135.0L231.5 132.8L233.4 130.4L235.0 128.4L236.6 126.5L238.2 124.6L240.1 122.5L242.0 120.3L243.9 118.2L245.8 116.1L247.6 114.2L249.5 112.4L251.3 110.5L253.2 108.6L255.2 106.7L257.2 104.8L259.2 102.9L261.2 101.1L263.1 99.4L265.0 97.7L266.9 96.1L268.9 94.4L271.2 92.5L273.5 90.6L275.5 89.1L277.4 87.6L279.6 85.9L282.2 84.0L284.1 82.6L286.1 81.2L288.9 79.3L290.8 78.0L293.1 76.5L295.6 74.9L297.5 73.6L300.4 71.9L302.3 70.7L305.2 69.0L307.1 67.9L309.9 66.3L312.1 65.2L314.7 63.7L317.5 62.3L319.5 61.3L322.4 59.9L325.2 58.5L327.2 57.6L330.0 56.3L332.9 55.0L335.8 53.8L338.0 52.9L340.6 51.9L343.4 50.7L346.3 49.7L349.2 48.6L352.0 47.6L354.9 46.6L357.8 45.7L360.6 44.8L363.5 43.9L366.4 43.1L369.3 42.3L372.2 41.5L375.9 40.6L378.8 39.9L381.7 39.3L384.6 38.7L388.4 37.9L391.3 37.4L394.2 36.8L398.0 36.2L400.8 35.8L404.6 35.3L407.5 34.9L411.3 34.5L415.2 34.1L418.0 33.9L421.9 33.6L425.7 33.4L429.5 33.2L433.3 33.1L436.2 33.0L440.0 33.0L443.3 33.0L446.7 33.1L450.6 33.3L454.4 33.4L458.2 33.7L462.0 34.0L464.9 34.3L468.7 34.7L471.6 35.0L475.4 35.5L478.3 35.9L482.1 36.5L485.0 37.0L488.8 37.7L491.7 38.2L494.6 38.8L498.3 39.7L501.3 40.4L504.1 41.1L507.0 41.8L509.9 42.6L512.9 43.4L516.1 44.4L519.1 45.3L522.0 46.3L524.8 47.2L527.5 48.2L530.1 49.1L532.8 50.1L535.7 51.2L538.6 52.4L541.4 53.6L544.2 54.8L546.4 55.7L549.1 57.0L552.0 58.3L554.4 59.5L556.8 60.7L559.6 62.1L561.8 63.3L564.4 64.7L566.9 66.1L569.2 67.4L571.8 68.9L574.0 70.2L576.5 71.8L578.8 73.2L580.9 74.6L583.5 76.4L585.5 77.7L587.8 79.3L590.2 81.1L592.1 82.5L594.2 84.0L596.7 85.9L598.8 87.7L600.8 89.2L602.7 90.8L604.7 92.5L606.9 94.4L609.0 96.3L611.0 98.2L613.0 100.1L615.0 102.0L616.9 103.9L618.7 105.8L620.5 107.6L622.3 109.5L624.0 111.4L625.7 113.3L627.5 115.4L629.5 117.7L631.2 119.9L632.7 121.8L634.2 123.8L636.2 126.3L637.6 128.4L639.0 130.4L640.9 133.1L642.1 135.0L643.8 137.8L645.0 139.7L646.6 142.6L647.7 144.5L649.2 147.3L650.5 150.0L651.5 152.0L652.7 154.8L653.9 157.7L655.1 160.5L656.1 163.3L657.0 166.2L657.8 169.0L658.6 171.8L659.2 174.7L659.9 178.5L660.3 181.3L660.6 185.1L660.7 188.8L660.5 192.6L660.1 196.1L659.4 199.2L658.5 202.1L657.4 204.9L656.2 207.1L654.7 209.6L653.3 211.5L651.5 213.5L649.5 215.4L647.3 217.2L644.8 219.0L642.8 220.2L640.0 221.7L637.7 222.8L635.2 223.9L632.3 225.1L629.5 226.1L626.6 227.1L623.7 228.0L620.8 228.8L618.0 229.6L615.1 230.4L611.4 231.3L608.4 232.0L605.5 232.7L602.7 233.3L598.8 234.0L596.0 234.5L592.3 235.1L589.3 235.5L585.5 235.9L582.6 236.1L578.8 236.3L574.9 236.3L571.2 236.1L568.2 235.7L564.5 235.1L561.5 234.5L558.7 233.7L555.8 232.7L552.9 231.7L550.1 230.5L547.8 229.4L545.3 228.2L542.4 226.7L540.5 225.7L537.6 224.0L535.7 222.8L532.8 221.1L530.9 219.9L528.2 218.1L526.1 216.7L523.9 215.3L521.4 213.6L519.4 212.3L516.8 210.6L514.7 209.1L512.6 207.7L509.9 205.9L508.0 204.7L505.4 203.0L503.2 201.6L500.9 200.2L498.4 198.6L496.3 197.3L493.6 195.7L491.6 194.5L488.8 192.9L486.7 191.7L484.0 190.2L481.5 188.8L479.3 187.7L476.4 186.2L474.1 185.1L471.6 183.8L468.7 182.5L466.1 181.3L464.0 180.3L461.1 179.1L458.2 177.9L455.4 176.8L452.5 175.7L449.8 174.7L447.1 173.7L444.3 172.8L441.3 171.8L438.2 170.9L435.3 170.1L432.4 169.3L429.5 168.5L426.7 167.8L423.4 167.1L420.0 166.4L417.1 165.9L413.5 165.2L410.4 164.7L407.2 164.3L403.7 163.9L399.9 163.5L397.0 163.2L393.2 162.9L389.3 162.7L385.5 162.6L381.7 162.6L377.9 162.6L374.0 162.7L370.2 162.9L366.4 163.1L363.5 163.4L359.7 163.8L355.9 164.2L353.0 164.6L349.2 165.2L346.3 165.7L343.4 166.3L339.6 167.1L336.7 167.7L333.9 168.4L331.0 169.2L328.1 170.0L324.9 170.9L321.9 171.8L319.0 172.8L316.2 173.7L313.6 174.7L310.9 175.7L308.0 176.8L305.2 178.0L302.3 179.3L299.9 180.3L297.5 181.5L294.6 182.8L292.1 184.1L289.9 185.3L287.0 186.8L285.1 187.9L282.2 189.5L280.2 190.7L277.4 192.4L275.5 193.6L272.7 195.5L270.7 196.8L268.5 198.3L265.9 200.1L264.0 201.5L262.1 203.0L259.6 204.9L257.3 206.7L255.4 208.3L253.5 209.9L251.6 211.5L249.5 213.4L247.4 215.3L245.4 217.2L243.4 219.1L241.5 220.9L239.6 222.8L237.8 224.7L236.0 226.6L234.3 228.5L232.5 230.5L230.5 232.7L228.6 235.0L227.0 237.0L225.4 238.9L223.8 240.9L221.9 243.4L220.4 245.5L219.0 247.4L217.2 250.1L215.8 252.1L214.3 254.3L212.7 256.8L211.4 258.8L209.7 261.5L208.5 263.6L207.0 266.3L205.7 268.6L204.4 271.0L202.9 273.8L201.8 275.9L200.5 278.5L199.2 281.4L198.0 284.0L197.1 286.1L195.8 288.9L194.7 291.8L193.5 294.6L192.5 297.4L191.4 300.3L190.5 303.1L189.5 305.9L188.6 308.8L187.7 311.6L186.9 314.4L186.1 317.3L185.4 320.1L184.6 323.6L183.9 326.7L183.5 329.5L183.8 332.4L184.5 336.1L185.2 339.0L185.9 341.8L186.7 344.6L187.5 347.5L188.5 350.7L189.4 353.7L190.4 356.6L191.3 359.4L192.3 362.0L193.2 364.6L194.3 367.3L195.4 370.1L196.6 373.0L197.9 375.8L199.0 378.1L200.1 380.5L201.5 383.3L202.8 386.0L203.9 388.1L205.4 390.9L206.6 393.1L208.1 395.6L209.5 398.0L210.9 400.3L212.4 402.7L213.9 405.1L215.2 407.1L217.0 409.8L218.4 411.7L220.0 414.0L221.8 416.4L223.2 418.3L224.8 420.3L226.7 422.7L228.5 424.9L230.1 426.8L231.7 428.7L233.4 430.6L235.3 432.7L237.2 434.7L239.2 436.7L241.1 438.7L243.0 440.5L244.9 442.4L246.8 444.2L248.7 445.9L250.6 447.6L252.7 449.4L254.9 451.3L257.2 453.2L259.2 454.8L261.2 456.3L263.3 457.9L265.9 459.8L267.9 461.2L269.9 462.7L272.6 464.5L274.5 465.8L277.1 467.4L279.3 468.8L281.8 470.2L284.1 471.6L286.7 473.0L288.9 474.2L291.8 475.7L294.0 476.8L296.6 478.1L299.4 479.4L302.0 480.6L304.2 481.6L307.1 482.8L309.9 483.9L312.8 485.0L315.7 486.1L318.6 487.1L321.4 488.0L324.3 488.9L327.2 489.8L330.0 490.6L332.9 491.3L335.8 492.0L339.4 492.9L342.5 493.5L345.3 494.1L349.2 494.8L352.0 495.2L355.5 495.7L358.7 496.1L362.6 496.5L365.4 496.8L369.3 497.0L373.1 497.2L376.9 497.4L380.7 497.4L384.6 497.4L388.4 497.3L392.2 497.1L396.0 496.9L398.9 496.6L402.7 496.2L406.6 495.8L409.4 495.4L413.3 494.8L416.1 494.3L419.0 493.8L422.8 493.0L425.7 492.4L428.6 491.7L431.4 491.0L434.9 490.0L438.1 489.1L441.0 488.2L443.9 487.3L446.7 486.4L449.6 485.4L452.3 484.4L454.8 483.4L457.3 482.5L460.1 481.3L463.0 480.1L465.9 478.8L468.2 477.8L470.7 476.6L473.5 475.2L476.0 474.0L478.3 472.8L481.2 471.3L483.2 470.2L486.0 468.7L488.3 467.4L490.7 466.0L493.2 464.5L495.5 463.2L497.9 461.7L500.3 460.2L502.4 458.9L505.1 457.2L507.0 455.9L509.7 454.2L511.8 452.8L514.0 451.3L516.6 449.6L518.5 448.3L521.1 446.6L523.3 445.2L525.3 443.8L528.1 442.0L530.0 440.8L532.6 439.1L534.7 437.7L537.3 436.2L539.5 434.9L542.2 433.4L544.3 432.3L547.2 430.8L549.8 429.6L552.0 428.7L554.8 427.6L557.7 426.6L560.6 425.8L564.4 424.9L567.3 424.4L571.1 424.0L574.0 423.8L577.8 423.7L581.6 423.8L584.5 424.0L588.3 424.4L592.1 424.9L595.0 425.3L598.1 425.8L601.7 426.5L604.6 427.1L607.5 427.8L611.3 428.6L614.1 429.4L617.0 430.1L619.9 430.9L622.8 431.7L625.6 432.6L628.5 433.5L631.4 434.6L634.2 435.7L637.1 436.9L639.6 438.1L641.9 439.3L644.6 440.9L646.7 442.3L648.6 443.8L650.7 445.7L652.5 447.6L654.3 449.9L655.9 452.3L657.2 454.7L658.2 457.0L659.1 459.8L660.0 463.6L660.4 466.4L660.7 470.2L660.7 474.0L660.4 477.8L660.1 480.6L659.4 484.4L658.8 487.2L658.1 490.0L657.2 493.2L656.2 496.2L655.3 498.9L654.3 501.4L653.2 504.2L651.9 507.0L650.6 509.9L649.5 511.9L648.2 514.6L646.7 517.3L645.5 519.3L643.8 522.1L642.7 524.0L640.9 526.7L639.6 528.8L638.1 531.0L636.3 533.5L634.9 535.4L633.3 537.5L631.4 539.9L629.7 542.0L628.1 543.9L626.5 545.8L624.7 547.9L622.8 550.0L620.8 552.0L618.9 554.0L617.0 556.0L615.1 557.9L613.2 559.8L611.3 561.6L609.4 563.3L607.5 565.1L605.5 566.7L603.6 568.4L601.3 570.3L599.0 572.2L596.9 573.9L595.0 575.3L593.0 576.9L590.4 578.8L588.3 580.3L586.4 581.7L583.7 583.5L581.6 584.9L579.4 586.4L576.8 588.0L574.9 589.2L572.1 590.9L570.1 592.1L567.3 593.7L565.3 594.8L562.5 596.4L560.0 597.7L557.7 598.9L554.8 600.3L552.5 601.5L550.1 602.6L547.2 603.9L544.3 605.2L542.0 606.2L539.5 607.2L536.7 608.4L533.8 609.5L530.9 610.6L528.1 611.7L525.2 612.7L522.3 613.6L519.4 614.6L516.6 615.5L513.7 616.3L510.8 617.2L508.0 617.9L505.1 618.7L502.2 619.4L498.4 620.3L495.5 621.0L492.7 621.6L489.3 622.2L486.0 622.9L483.1 623.3L479.3 624.0L476.4 624.4L472.6 624.9L469.7 625.2L465.9 625.6L462.0 626.0L459.2 626.2L455.4 626.5L451.5 626.7L447.7 626.8L443.9 626.9L441.0 627.0L437.2 627.0" pathLength="1" style="--i:2"/>
<path d="M347.1 660.0L343.7 659.1L340.6 658.1L337.7 657.3L334.8 656.4L331.9 655.4L329.1 654.5L326.2 653.5L323.3 652.5L320.6 651.5L318.1 650.6L315.6 649.6L312.8 648.5L309.9 647.4L307.1 646.2L304.2 645.0L301.9 643.9L299.4 642.9L296.6 641.6L293.7 640.2L291.6 639.2L288.9 637.9L286.0 636.5L284.0 635.5L281.2 634.0L278.6 632.6L276.5 631.5L273.6 629.9L271.7 628.8L268.8 627.2L266.8 626.0L264.0 624.4L262.1 623.2L259.2 621.4L257.3 620.2L254.6 618.5L252.5 617.1L250.3 615.6L247.8 613.9L245.9 612.6L243.4 610.9L241.1 609.2L239.2 607.8L236.9 606.2L234.4 604.3L232.5 602.8L230.5 601.3L228.3 599.6L226.0 597.7L223.8 595.9L221.9 594.4L220.0 592.7L218.1 591.1L215.9 589.2L213.8 587.3L211.7 585.4L209.6 583.5L207.6 581.6L205.7 579.8L203.8 578.0L201.8 576.1L199.9 574.2L198.0 572.3L196.1 570.3L194.3 568.4L192.5 566.5L190.7 564.6L189.0 562.7L187.3 560.9L185.6 558.9L183.7 556.8L181.8 554.5L179.9 552.4L178.3 550.5L176.8 548.6L175.1 546.4L173.1 544.0L171.6 542.0L170.1 540.1L168.4 537.8L166.6 535.4L165.2 533.5L163.6 531.2L161.8 528.8L160.5 526.9L158.8 524.3L157.3 522.1L155.9 520.0L154.3 517.4L153.1 515.5L151.3 512.7L150.1 510.8L148.4 508.0L147.3 506.1L145.7 503.3L144.4 501.1L143.0 498.5L141.6 496.0L140.4 493.8L138.9 491.0L137.8 488.7L136.5 486.3L135.1 483.4L133.9 481.0L132.8 478.7L131.5 475.9L130.2 473.0L129.1 470.6L128.1 468.3L126.9 465.5L125.8 462.7L124.6 459.8L123.5 457.0L122.4 454.3L121.5 451.7L120.5 449.1L119.6 446.5L118.6 443.7L117.7 440.9L116.7 438.0L115.8 435.0L114.8 431.9L113.8 428.7L113.0 425.8L112.2 423.0L111.4 420.2L110.7 417.3L110.0 414.5L109.1 410.7L108.4 407.9L107.8 405.1L107.1 402.1L106.4 398.5L105.8 395.6L105.2 392.3L104.6 389.0L104.2 386.2L103.6 382.4L103.2 379.6L102.6 375.8L102.3 373.0L101.8 369.2L101.4 365.4L101.2 362.6L100.8 358.8L100.5 355.0L100.3 352.2L100.1 348.4L99.9 344.6L99.8 340.9L99.7 337.1L99.7 333.3L99.6 329.5L99.7 325.8L99.7 322.0L99.8 318.2L100.0 314.4L100.2 310.6L100.4 306.9L100.6 304.0L100.9 300.3L101.2 296.5L101.5 293.6L101.9 289.9L102.4 286.4L102.8 283.3L103.3 279.5L103.7 276.7L104.3 273.2L104.8 270.0L105.3 267.2L106.0 263.4L106.6 260.6L107.2 257.8L108.0 254.0L108.6 251.2L109.3 248.3L110.0 245.4L110.9 241.7L111.7 238.9L112.5 236.1L113.3 233.2L114.1 230.4L115.0 227.6L115.8 224.7L116.7 221.9L117.7 219.1L118.6 216.2L119.6 213.4L120.6 210.6L121.7 207.7L122.8 204.9L123.9 202.1L125.0 199.2L126.2 196.4L127.2 193.8L128.2 191.6L129.4 188.8L130.7 186.0L132.0 183.2L133.0 181.0L134.2 178.5L135.6 175.6L136.8 173.2L138.0 170.9L139.4 168.1L140.6 165.8L142.0 163.3L143.5 160.6L144.6 158.6L146.2 155.8L147.3 153.9L149.0 151.1L150.2 149.1L151.9 146.4L153.1 144.5L154.9 141.6L156.1 139.7L157.8 137.1L159.2 135.0L160.7 132.9L162.5 130.3L163.8 128.4L165.5 126.1L167.3 123.7L168.7 121.8L170.3 119.7L172.2 117.2L173.8 115.2L175.3 113.3L177.0 111.2L178.9 108.9L180.7 106.7L182.3 104.8L184.0 102.9L185.6 101.0L187.5 98.9L189.4 96.8L191.3 94.7L193.2 92.7L195.2 90.7L197.0 88.8L198.9 86.9L200.7 85.0L202.7 83.1L204.6 81.2L206.6 79.3L208.5 77.5L210.5 75.7L212.4 74.0L214.3 72.3L216.2 70.6L218.1 68.9L220.3 67.0L222.5 65.2L224.8 63.3L226.7 61.7L228.6 60.2L230.7 58.5L233.2 56.7L235.3 55.0L237.2 53.6L239.5 51.9L242.0 50.1L243.9 48.7L246.1 47.2L248.7 45.4L250.6 44.1L253.1 42.5L255.4 41.0L257.5 39.7L260.2 38.0L262.1 36.8L265.0 35.1L266.9 33.9L269.8 32.3L271.7 31.2L274.5 29.6L276.8 28.3L279.3 27.0L282.1 25.5L284.1 24.5L287.0 23.0L289.6 21.7L291.8 20.7L294.6 19.3L297.5 18.0L299.7 17.0L302.3 15.9L305.2 14.6L308.0 13.4L310.8 12.3L313.2 11.3L315.7 10.3L318.6 9.3L321.4 8.2L324.3 7.2L327.2 6.2L330.0 5.2L332.9 4.2L335.8 3.3L338.6 2.4L341.5 1.6L344.4 0.7" pathLength="1" style="--i:3"/>
<path d="M521.0 0.0L524.2 0.9L527.1 1.8L530.0 2.6L532.8 3.5L535.7 4.5L538.6 5.4L541.4 6.4L544.3 7.4L547.2 8.5L549.7 9.4L552.1 10.4L554.8 11.5L557.7 12.6L560.6 13.8L563.4 15.1L565.7 16.1L568.2 17.2L571.1 18.5L573.8 19.8L575.9 20.8L578.8 22.3L581.4 23.6L583.5 24.7L586.4 26.2L588.5 27.4L591.2 28.9L593.6 30.2L596.0 31.6L598.4 33.0L600.8 34.4L603.1 35.9L605.5 37.4L607.6 38.7L610.3 40.5L612.2 41.8L614.7 43.4L617.0 45.0L618.9 46.4L621.4 48.2L623.7 49.8L625.6 51.3L627.7 52.9L630.2 54.8L632.3 56.4L634.2 58.0L636.2 59.5L638.4 61.4L640.6 63.3L642.8 65.2L644.8 66.9L646.7 68.6L648.6 70.3L650.5 72.1L652.4 73.9L654.3 75.7L656.2 77.6L658.2 79.5L660.1 81.4L662.0 83.4L663.9 85.4L665.8 87.5L667.7 89.6L669.5 91.6L671.2 93.5L672.8 95.4L674.4 97.3L676.3 99.5L678.2 101.9L679.8 103.9L681.3 105.8L683.0 107.9L684.9 110.5L686.3 112.4L687.8 114.4L689.7 117.1L691.0 119.0L692.6 121.2L694.2 123.7L695.5 125.6L697.3 128.4L698.5 130.3L700.2 133.1L701.3 135.0L703.0 137.9L704.1 139.8L705.6 142.6L706.9 145.0L708.1 147.3L709.6 150.1L710.8 152.5L711.9 154.8L713.3 157.7L714.6 160.5L715.6 162.7L716.6 165.2L717.8 168.1L719.0 170.9L720.1 173.7L721.1 176.6L722.2 179.4L723.1 182.2L724.1 185.1L725.0 187.9L725.8 190.7L726.7 193.6L727.5 196.4L728.2 199.2L728.9 202.2L729.8 205.8L730.4 208.7L730.9 211.5L731.6 215.3L732.1 218.1L732.7 221.9L733.0 224.7L733.5 228.5L733.7 231.3L734.0 235.1L734.2 238.9L734.4 242.7L734.4 246.4L734.3 250.2L734.2 254.0L733.9 257.8L733.7 260.6L733.2 264.4L732.7 267.2L732.0 271.0L731.4 273.8L730.6 276.7L729.6 279.5L728.5 282.3L727.1 285.2L725.9 287.0L724.2 289.3L722.2 290.9L719.4 292.3L715.6 292.6L712.0 291.8L709.6 290.8L706.9 289.6L704.1 288.0L702.2 286.9L699.3 285.2L697.4 284.1L694.5 282.4L692.6 281.3L689.7 279.7L687.7 278.5L684.9 277.1L682.3 275.7L680.2 274.7L677.3 273.4L674.4 272.1L671.7 271.0L669.2 270.0L666.5 269.1L663.5 268.2L660.3 267.2L657.2 266.4L654.3 265.8L651.5 265.2L647.6 264.6L644.8 264.2L640.9 263.8L637.1 263.6L633.3 263.5L629.5 263.6L625.6 263.8L621.8 264.1L618.9 264.5L615.1 265.1L612.2 265.6L609.1 266.3L605.5 267.1L602.7 267.9L599.8 268.7L596.9 269.7L594.1 270.6L591.2 271.6L588.3 272.7L585.5 273.8L582.9 274.8L580.4 275.7L577.8 276.7L574.9 277.7L572.1 278.7L569.2 279.5L565.4 280.4L562.5 280.8L558.7 280.9L554.8 280.5L552.0 279.7L549.1 278.6L547.0 277.6L544.3 276.0L542.4 274.8L539.9 272.9L537.6 271.0L535.7 269.4L533.8 267.6L531.9 265.8L530.0 264.0L528.1 262.1L526.1 260.2L524.2 258.3L522.3 256.3L520.4 254.4L518.5 252.5L516.6 250.6L514.7 248.7L512.7 246.8L510.8 245.0L508.9 243.1L507.0 241.4L505.1 239.6L503.2 237.9L501.1 236.1L498.9 234.2L496.7 232.3L494.6 230.5L492.7 229.0L490.7 227.5L488.3 225.7L486.0 223.9L484.0 222.5L481.8 220.9L479.3 219.2L477.4 218.0L474.6 216.2L472.6 215.0L469.9 213.4L467.8 212.2L464.9 210.6L463.0 209.6L460.1 208.2L457.3 206.8L455.3 205.8L452.5 204.6L449.6 203.4L446.7 202.2L443.9 201.1L441.2 200.2L438.4 199.2L435.4 198.3L432.4 197.4L429.5 196.6L426.7 195.9L423.8 195.2L420.5 194.5L417.1 193.9L414.2 193.4L410.4 192.8L407.5 192.5L403.7 192.1L399.9 191.8L397.0 191.7L393.2 191.5L389.3 191.5L385.5 191.6L382.6 191.7L378.8 192.0L375.0 192.4L372.1 192.7L368.3 193.2L365.4 193.7L361.6 194.4L358.7 195.0L355.9 195.7L353.0 196.4L349.8 197.3L346.7 198.3L343.8 199.2L341.1 200.2L338.5 201.1L335.8 202.2L332.9 203.4L330.0 204.7L327.6 205.8L325.3 207.0L322.4 208.5L320.3 209.6L317.6 211.1L315.4 212.4L312.8 214.0L310.9 215.3L308.1 217.2L306.1 218.6L304.2 220.0L301.7 221.9L299.4 223.7L297.5 225.3L295.6 227.0L293.7 228.7L291.8 230.4L289.9 232.3L287.9 234.2L286.0 236.2L284.1 238.3L282.2 240.4L280.3 242.7L278.8 244.5L277.3 246.4L275.5 248.8L273.8 251.2L272.5 253.0L270.7 255.6L269.4 257.8L267.9 260.3L266.5 262.5L265.0 265.3L264.0 267.2L262.5 270.0L261.2 272.9L260.2 275.1L259.1 277.6L258.0 280.4L256.9 283.3L255.9 286.1L255.0 288.9L254.1 291.8L253.3 294.6L252.5 297.5L251.7 301.2L251.1 304.0L250.6 306.9L250.0 310.6L249.6 313.5L249.2 317.3L248.9 321.0L248.7 323.9L248.6 327.6L248.6 331.4L248.7 335.2L248.8 338.0L249.1 341.8L249.5 345.6L249.8 348.4L250.4 352.2L250.9 355.0L251.6 358.4L252.3 361.6L253.0 364.5L253.8 367.3L254.7 370.1L255.6 373.0L256.5 375.8L257.6 378.6L258.7 381.5L259.9 384.3L261.2 387.1L262.1 389.1L263.5 391.8L265.0 394.7L266.0 396.6L267.6 399.4L268.8 401.3L270.6 404.1L271.8 406.0L273.6 408.6L275.1 410.7L276.5 412.6L278.4 415.0L280.3 417.3L281.9 419.2L283.6 421.1L285.3 423.0L287.1 424.9L288.9 426.8L290.8 428.7L292.8 430.6L294.9 432.4L297.1 434.3L299.4 436.2L301.3 437.8L303.2 439.3L305.5 440.9L308.0 442.8L309.9 444.1L312.4 445.7L314.7 447.1L317.0 448.5L319.5 450.0L322.0 451.3L324.3 452.5L327.2 454.0L329.6 455.1L331.9 456.2L334.8 457.4L337.7 458.6L340.6 459.6L343.4 460.7L346.3 461.6L349.2 462.5L352.0 463.3L354.9 464.1L357.8 464.7L361.2 465.5L364.5 466.1L367.3 466.6L371.2 467.2L374.0 467.5L377.9 467.9L381.7 468.2L384.6 468.3L388.4 468.5L392.2 468.5L396.0 468.4L398.9 468.2L402.7 468.0L406.6 467.6L409.4 467.3L413.3 466.8L416.1 466.3L420.0 465.6L422.8 465.0L425.7 464.4L428.7 463.6L432.2 462.7L435.3 461.8L438.1 460.9L441.0 459.9L443.8 458.9L446.3 457.9L448.7 457.0L451.5 455.8L454.4 454.6L457.3 453.2L459.3 452.3L462.0 450.9L464.8 449.4L466.8 448.3L469.7 446.7L471.6 445.6L474.5 443.8L476.4 442.6L479.0 440.9L481.2 439.5L483.1 438.1L485.8 436.2L487.9 434.7L489.8 433.2L492.0 431.5L494.4 429.6L496.5 427.9L498.4 426.3L500.3 424.7L502.2 423.0L504.3 421.1L506.4 419.2L508.4 417.3L510.4 415.5L512.4 413.6L514.3 411.7L516.2 409.8L518.1 407.9L520.0 406.0L521.9 404.1L523.7 402.2L525.6 400.3L527.5 398.5L529.4 396.6L531.3 394.7L533.3 392.8L535.4 390.9L537.6 389.0L539.5 387.4L541.4 385.9L543.8 384.3L546.2 382.8L548.9 381.5L551.2 380.5L554.7 379.6L557.7 379.1L561.5 379.1L565.0 379.6L568.2 380.2L571.1 381.0L574.0 382.0L576.8 383.0L579.7 384.0L582.6 385.1L585.3 386.2L587.8 387.1L590.4 388.1L593.1 389.0L596.0 390.0L598.8 391.0L601.8 391.8L605.2 392.8L608.4 393.6L611.3 394.2L614.1 394.8L618.0 395.4L620.8 395.8L624.7 396.2L628.5 396.4L632.3 396.5L636.2 396.5L640.0 396.3L643.8 395.9L646.7 395.6L650.5 395.0L653.4 394.4L656.6 393.7L660.1 392.9L662.9 392.0L665.8 391.1L668.7 390.1L671.5 389.1L674.0 388.1L676.3 387.1L679.2 385.8L682.1 384.4L684.1 383.3L686.9 381.9L689.4 380.5L691.6 379.3L694.4 377.7L696.4 376.5L699.1 374.8L701.2 373.6L704.0 372.0L706.0 370.9L708.9 369.5L711.7 368.3L714.6 367.5L718.4 367.5L721.3 368.5L723.6 370.1L725.3 372.0L727.0 374.7L728.1 376.7L729.3 379.6L730.3 382.4L731.1 385.2L731.8 388.1L732.6 391.8L733.0 394.7L733.5 398.5L733.8 401.3L734.1 405.1L734.3 408.8L734.4 412.6L734.4 416.4L734.3 420.2L734.1 423.9L733.8 427.7L733.6 430.6L733.2 434.3L732.8 437.4L732.3 440.9L731.8 443.8L731.1 447.6L730.6 450.4L729.9 453.6L729.1 457.0L728.4 459.8L727.7 462.7L726.9 465.5L726.1 468.5L725.1 471.7L724.2 474.7L723.2 477.6L722.2 480.3L721.3 483.0L720.3 485.6L719.3 488.2L718.2 491.0L717.0 493.8L715.8 496.7L714.6 499.4L713.6 501.5L712.4 504.2L711.0 507.0L709.8 509.4L708.6 511.8L707.1 514.6L706.0 516.7L704.6 519.3L703.1 521.9L701.9 524.0L700.2 526.8L699.0 528.8L697.4 531.4L696.1 533.5L694.5 535.9L693.0 538.2L691.6 540.2L689.7 542.9L688.4 544.8L686.9 546.9L684.9 549.5L683.5 551.4L682.1 553.3L680.2 555.7L678.3 558.0L676.8 559.9L675.2 561.8L673.5 563.9L671.5 566.1L669.6 568.3L667.8 570.3L666.1 572.2L664.4 574.1L662.6 576.0L660.7 577.9L658.9 579.7L657.0 581.6L655.1 583.5L653.1 585.4L651.1 587.3L649.1 589.2L647.0 591.1L644.9 593.0L642.8 594.8L640.9 596.5L639.0 598.1L637.1 599.7L634.9 601.5L632.6 603.3L630.4 605.1L628.5 606.5L626.5 608.1L624.0 610.0L621.8 611.6L619.9 612.9L617.4 614.7L615.1 616.3L613.2 617.6L610.5 619.4L608.4 620.7L606.1 622.2L603.6 623.8L601.6 625.1L598.8 626.7L596.8 627.9L594.1 629.5L591.9 630.7L589.3 632.2L586.8 633.6L584.5 634.8L581.6 636.3L579.6 637.3L576.8 638.7L574.0 640.1L571.8 641.1L569.2 642.3L566.3 643.7L563.5 644.9L561.3 645.8L558.7 647.0L555.8 648.2L552.9 649.3L550.1 650.4L547.2 651.5L544.6 652.4L542.0 653.4L539.3 654.3L536.5 655.3L533.6 656.2L530.6 657.2L527.6 658.1L524.4 659.1L521.4 659.9" pathLength="1" style="--i:4"/>
<path d="M333.1 660.0L330.2 659.1L327.3 658.1L324.6 657.2L321.9 656.2L319.3 655.3L316.6 654.3L313.8 653.2L310.9 652.1L308.0 650.9L305.2 649.7L302.6 648.7L300.4 647.7L297.5 646.4L294.6 645.1L292.1 643.9L289.9 642.9L287.0 641.5L284.3 640.2L282.2 639.1L279.3 637.6L277.0 636.4L274.5 635.1L271.8 633.6L269.8 632.4L266.9 630.8L265.0 629.7L262.1 628.0L260.2 626.8L257.3 625.1L255.4 623.9L252.9 622.2L250.6 620.8L248.5 619.4L245.9 617.6L243.9 616.3L241.6 614.7L239.2 612.9L237.2 611.6L235.1 610.0L232.5 608.1L230.5 606.6L228.6 605.1L226.4 603.3L224.0 601.5L221.9 599.8L220.0 598.2L218.1 596.6L216.0 594.8L213.9 593.0L211.7 591.1L209.6 589.2L207.6 587.4L205.7 585.6L203.8 583.8L201.8 582.0L199.9 580.2L198.0 578.3L196.1 576.4L194.2 574.4L192.3 572.5L190.4 570.5L188.5 568.5L186.7 566.5L184.9 564.6L183.2 562.7L181.6 560.9L179.8 558.9L177.9 556.7L176.0 554.4L174.3 552.4L172.8 550.5L171.2 548.5L169.3 546.1L167.6 543.9L166.1 542.0L164.5 539.9L162.6 537.3L161.2 535.4L159.8 533.3L157.8 530.6L156.5 528.8L155.0 526.5L153.3 524.0L152.1 522.1L150.3 519.3L149.1 517.4L147.3 514.6L146.1 512.7L144.4 509.9L143.3 508.0L141.7 505.2L140.6 503.3L139.0 500.4L137.8 498.2L136.4 495.7L134.9 492.9L133.9 491.0L132.5 488.2L131.1 485.3L130.1 483.3L128.8 480.6L127.5 477.8L126.3 475.1L125.3 473.0L124.1 470.2L122.9 467.4L121.7 464.5L120.5 461.7L119.6 459.3L118.6 456.9L117.6 454.2L116.5 451.3L115.5 448.5L114.5 445.7L113.5 442.8L112.6 440.0L111.7 437.2L110.8 434.3L109.9 431.5L109.1 428.5L108.1 425.2L107.2 422.1L106.5 419.2L105.8 416.4L105.1 413.6L104.3 410.3L103.5 407.0L102.9 404.1L102.3 401.3L101.5 397.5L101.0 394.7L100.4 391.6L99.8 388.1L99.4 385.2L98.8 381.5L98.4 378.6L97.9 374.8L97.5 372.0L97.1 368.2L96.7 364.5L96.5 361.6L96.1 357.9L95.9 354.1L95.7 350.9L95.5 347.5L95.3 343.7L95.2 339.9L95.1 336.1L95.1 332.4L95.0 328.6L95.1 324.8L95.2 321.0L95.3 317.3L95.4 313.5L95.6 309.7L95.8 306.9L96.1 303.1L96.4 299.3L96.6 296.5L97.0 292.7L97.4 288.9L97.8 286.1L98.3 282.3L98.7 279.5L99.2 275.7L99.7 272.9L100.3 269.1L100.8 266.3L101.4 263.2L102.1 259.7L102.7 256.8L103.3 254.0L104.2 250.2L104.8 247.4L105.5 244.5L106.2 241.7L107.1 238.3L108.0 235.1L108.8 232.3L109.7 229.4L110.5 226.6L111.4 223.8L112.3 220.9L113.2 218.1L114.2 215.3L115.2 212.4L116.2 209.6L117.2 206.8L118.3 203.9L119.4 201.1L120.5 198.3L121.5 195.9L122.5 193.6L123.7 190.7L124.9 187.9L126.2 185.1L127.2 182.8L128.4 180.3L129.7 177.5L131.1 174.7L132.0 172.8L133.5 170.0L134.9 167.2L135.9 165.2L137.4 162.4L138.7 160.1L140.0 157.7L141.6 155.0L142.7 153.0L144.4 150.1L145.6 148.2L147.3 145.4L148.5 143.5L150.2 140.8L151.5 138.8L153.1 136.4L154.6 134.1L155.9 132.1L157.8 129.4L159.2 127.5L160.7 125.3L162.6 122.7L164.0 120.9L165.5 118.8L167.4 116.3L169.0 114.2L170.5 112.4L172.2 110.3L174.1 107.9L175.9 105.8L177.5 103.9L179.1 102.0L180.8 100.0L182.7 97.8L184.6 95.7L186.5 93.6L188.4 91.6L190.2 89.7L192.0 87.8L193.8 85.9L195.7 84.0L197.6 82.1L199.5 80.3L201.5 78.4L203.4 76.5L205.4 74.6L207.5 72.7L209.5 70.9L211.4 69.2L213.3 67.5L215.2 65.8L217.2 64.2L219.4 62.3L221.7 60.4L223.8 58.7L225.8 57.1L227.7 55.6L230.0 53.8L232.5 52.0L234.4 50.5L236.3 49.1L238.9 47.2L241.1 45.7L243.0 44.4L245.7 42.5L247.8 41.1L249.9 39.7L252.5 38.0L254.5 36.7L257.3 34.9L259.2 33.8L262.0 32.1L264.0 30.9L266.8 29.3L268.8 28.1L271.7 26.5L273.6 25.4L276.5 23.9L278.8 22.7L281.2 21.4L284.1 19.9L286.2 18.9L288.9 17.6L291.8 16.2L294.1 15.1L296.6 14.0L299.4 12.7L302.3 11.5L304.9 10.4L307.1 9.4L309.9 8.3L312.8 7.2L315.7 6.1L318.6 5.0L321.4 3.9L324.3 2.9L327.2 1.9L330.0 1.0L332.9 0.1" pathLength="1" style="--i:5"/>
<path d="M534.4 0.0L537.3 0.9L540.1 1.9L542.8 2.8L545.4 3.8L548.1 4.8L551.0 5.8L553.9 7.0L556.8 8.1L559.6 9.3L562.3 10.4L564.5 11.3L567.3 12.6L570.1 13.9L572.8 15.1L574.9 16.1L577.8 17.5L580.6 18.9L582.6 19.9L585.5 21.4L587.9 22.7L590.2 23.9L593.1 25.5L595.0 26.6L597.9 28.2L599.8 29.4L602.7 31.1L604.6 32.3L607.4 34.0L609.4 35.3L611.8 36.8L614.1 38.4L616.1 39.7L618.8 41.5L620.8 43.0L622.8 44.4L625.4 46.3L627.5 47.8L629.5 49.3L631.7 51.0L634.1 52.9L636.2 54.5L638.1 56.0L640.0 57.6L642.2 59.5L644.4 61.4L646.6 63.3L648.6 65.0L650.5 66.7L652.4 68.5L654.3 70.3L656.2 72.1L658.2 73.9L660.1 75.8L662.0 77.7L663.9 79.7L665.8 81.6L667.7 83.7L669.6 85.7L671.5 87.8L673.2 89.7L674.9 91.6L676.5 93.5L678.2 95.5L680.2 97.8L682.1 100.1L683.6 102.0L685.1 103.9L686.9 106.2L688.7 108.6L690.1 110.5L691.6 112.6L693.5 115.2L694.8 117.1L696.4 119.4L698.0 121.8L699.3 123.7L701.1 126.5L702.3 128.4L704.0 131.2L705.2 133.1L706.8 136.0L707.9 137.9L709.5 140.7L710.8 143.0L712.1 145.4L713.6 148.2L714.6 150.3L715.9 153.0L717.3 155.8L718.4 158.2L719.5 160.5L720.8 163.3L722.0 166.2L723.2 169.0L724.2 171.5L725.1 173.9L726.1 176.6L727.2 179.4L728.2 182.2L729.1 185.1L730.1 187.9L730.9 190.7L731.8 193.6L732.8 197.0L733.6 200.2L734.4 203.0L735.1 205.8L735.7 208.7L736.5 212.4L737.1 215.3L737.6 218.1L738.3 221.9L738.7 224.7L739.3 228.5L739.6 231.3L740.0 235.1L740.4 238.9L740.6 241.7L740.8 245.5L741.0 249.3L741.1 253.0L741.1 256.8L741.1 260.6L741.0 264.4L740.8 268.2L740.5 271.9L740.3 274.8L739.9 278.5L739.5 281.7L739.0 285.2L738.5 288.0L737.8 291.8L737.2 294.6L736.6 297.5L735.7 301.2L734.9 304.0L734.1 306.9L733.3 309.7L732.4 312.5L731.4 315.4L730.3 318.2L729.2 321.0L728.1 323.9L727.0 326.4L726.1 328.8L726.1 331.4L727.3 334.2L728.5 337.1L729.6 339.9L730.7 342.7L731.7 345.6L732.7 348.4L733.6 351.2L734.4 354.1L735.2 356.9L735.9 359.7L736.6 362.6L737.4 366.4L738.0 369.2L738.5 372.1L739.1 375.8L739.5 378.6L740.0 382.4L740.3 386.2L740.6 389.0L740.8 392.8L741.0 396.6L741.1 400.3L741.1 404.1L741.1 407.9L741.0 411.7L740.8 415.5L740.5 419.2L740.3 422.1L739.9 425.8L739.5 429.6L739.1 432.4L738.6 436.2L738.1 439.1L737.6 442.3L736.9 445.7L736.3 448.5L735.6 451.7L734.8 455.1L734.1 457.9L733.4 460.8L732.6 463.6L731.8 466.4L730.9 469.6L729.9 472.6L728.9 475.5L728.0 478.3L727.0 481.0L726.1 483.6L725.0 486.3L723.9 489.1L722.8 491.9L721.6 494.8L720.3 497.6L719.4 499.7L718.2 502.3L716.8 505.2L715.6 507.8L714.5 509.9L713.1 512.7L711.7 515.3L710.6 517.4L709.0 520.3L707.9 522.2L706.3 525.0L705.0 527.1L703.4 529.7L702.2 531.8L700.5 534.4L699.3 536.3L697.4 539.1L696.1 541.0L694.5 543.3L692.8 545.8L691.5 547.6L689.7 550.0L688.0 552.4L686.5 554.2L684.9 556.3L683.0 558.7L681.3 560.9L679.7 562.7L678.1 564.6L676.3 566.8L674.4 569.0L672.5 571.1L670.7 573.1L669.0 575.0L667.2 576.9L665.4 578.8L663.6 580.7L661.7 582.6L659.8 584.5L657.9 586.4L655.9 588.2L653.9 590.1L651.9 592.0L649.8 593.9L647.7 595.8L645.7 597.5L643.8 599.2L641.9 600.8L640.0 602.4L637.7 604.3L635.3 606.2L633.3 607.8L631.4 609.3L629.2 610.9L626.7 612.8L624.7 614.3L622.8 615.7L620.1 617.5L618.0 619.0L616.0 620.3L613.2 622.2L611.3 623.5L608.9 625.1L606.5 626.6L604.3 627.9L601.7 629.5L599.6 630.7L596.9 632.3L594.7 633.6L592.1 635.0L589.6 636.4L587.4 637.6L584.5 639.1L582.5 640.2L579.7 641.6L576.8 643.0L574.8 643.9L572.1 645.2L569.2 646.6L566.6 647.7L564.4 648.7L561.5 649.9L558.7 651.1L555.8 652.3L553.0 653.4L550.5 654.3L548.0 655.3L545.3 656.3L542.4 657.3L539.5 658.3L536.7 659.3" pathLength="1" style="--i:6"/>
<path d="M376.0 465.5L379.8 465.9L383.6 466.1L387.4 466.3L391.3 466.3L395.1 466.3L398.9 466.1L402.7 465.9L406.6 465.5L409.4 465.2L413.3 464.6L416.1 464.2L419.2 463.6L422.8 462.9L425.7 462.2L428.6 461.5L431.4 460.7L434.5 459.8L437.5 458.9L440.3 457.9L442.9 457.0L445.8 455.9L448.7 454.8L451.5 453.6L454.4 452.3L456.4 451.3L459.2 450.0L462.0 448.5L464.0 447.5L466.8 445.9L468.9 444.7L471.6 443.1L473.6 441.9L476.4 440.1L478.3 438.8L480.7 437.2L483.1 435.5L485.0 434.1L487.2 432.4L489.7 430.6L491.7 428.9L493.6 427.4L495.5 425.8L497.7 423.9L499.8 422.1L501.9 420.2L503.9 418.3L505.9 416.4L507.9 414.5L509.8 412.6L511.7 410.7L513.6 408.8L515.4 407.0L517.2 405.1L519.0 403.2L520.8 401.3L522.6 399.4L524.4 397.5L526.2 395.6L528.1 393.6L530.0 391.7L531.9 389.7L533.8 387.8L535.7 386.0L537.6 384.2L539.8 382.4L542.2 380.5L544.3 379.0L546.5 377.7L549.1 376.4L552.0 375.4L554.8 374.8L558.7 374.5L562.1 374.8L565.4 375.5L568.2 376.4L571.1 377.4L574.0 378.5L576.6 379.6L578.8 380.5L581.6 381.7L584.5 383.0L587.4 384.2L589.9 385.2L592.3 386.2L595.0 387.2L597.9 388.2L600.8 389.2L603.6 390.1L606.7 390.9L610.3 391.8L613.2 392.4L616.1 392.9L619.9 393.5L622.8 393.8L626.6 394.1L630.4 394.2L634.2 394.2L638.1 394.0L641.6 393.7L644.8 393.4L648.3 392.8L651.5 392.2L654.3 391.5L657.2 390.7L660.1 389.9L662.9 388.9L665.8 387.8L668.7 386.7L671.5 385.4L673.8 384.3L676.3 383.0L679.1 381.5L681.1 380.2L683.7 378.6L685.9 377.1L687.8 375.8L690.3 373.9L692.6 372.1L694.5 370.5L696.4 368.9L698.3 367.1L700.2 365.3L702.2 363.4L704.1 361.4L706.0 359.2L707.9 357.0L709.5 355.0L711.0 353.1L712.7 350.9L714.5 348.4L715.8 346.5L717.5 344.0L718.8 341.8L720.3 339.2L721.6 337.1L723.1 334.2L724.2 331.9L724.5 328.6L723.2 326.1L722.1 323.9L720.5 321.0L719.4 319.1L717.6 316.3L716.4 314.4L714.6 311.7L713.2 309.7L711.7 307.8L709.8 305.3L708.0 303.1L706.4 301.2L704.7 299.3L702.9 297.4L701.1 295.5L699.2 293.6L697.1 291.8L695.0 289.9L692.7 288.0L690.7 286.4L688.8 284.9L686.5 283.3L684.0 281.6L682.1 280.4L679.2 278.6L677.3 277.5L674.4 276.0L671.8 274.8L669.6 273.8L666.8 272.5L663.9 271.4L661.0 270.4L658.2 269.5L655.3 268.7L652.4 268.0L648.6 267.3L645.7 266.8L641.9 266.3L639.0 266.0L635.2 265.8L631.4 265.8L627.5 265.9L623.7 266.1L620.8 266.4L617.0 266.9L614.1 267.4L610.6 268.2L607.5 268.9L604.6 269.7L601.7 270.5L598.8 271.4L596.0 272.4L593.1 273.5L590.2 274.6L587.6 275.7L585.4 276.7L582.6 277.8L579.7 279.1L576.8 280.3L574.3 281.4L571.9 282.3L569.2 283.3L566.3 284.2L562.5 285.1L559.6 285.4L555.8 285.4L552.9 284.9L550.1 284.0L547.2 282.7L544.9 281.4L542.4 279.7L540.5 278.2L538.6 276.6L536.5 274.8L534.5 272.9L532.6 271.0L530.7 269.1L528.9 267.2L527.1 265.3L525.2 263.3L523.3 261.3L521.4 259.3L519.4 257.3L517.5 255.2L515.6 253.3L513.7 251.3L511.8 249.3L509.9 247.4L508.0 245.6L506.1 243.7L504.1 241.9L502.2 240.1L500.3 238.4L498.4 236.7L496.5 235.0L494.3 233.2L492.0 231.3L489.8 229.5L487.9 228.0L486.0 226.6L483.4 224.7L481.2 223.1L479.3 221.8L476.5 220.0L474.5 218.7L472.1 217.2L469.7 215.7L467.3 214.3L464.9 213.0L462.1 211.5L460.1 210.5L457.3 209.1L454.4 207.7L452.3 206.8L449.6 205.6L446.7 204.5L443.9 203.3L441.0 202.3L438.1 201.3L435.3 200.4L432.4 199.6L429.5 198.8L426.7 198.0L423.8 197.3L420.0 196.5L417.1 196.0L413.8 195.5L410.4 195.0L406.6 194.5L403.7 194.2L399.9 193.9L396.0 193.8L392.2 193.7L388.4 193.7L384.6 193.8L380.7 194.0L376.9 194.4L374.0 194.7L370.2 195.2L367.3 195.6L363.5 196.3L360.6 196.9L357.8 197.6L354.9 198.3L351.4 199.2L348.3 200.2L345.3 201.1L342.6 202.1L340.1 203.0L337.7 203.9L334.8 205.1L331.9 206.4L329.1 207.7L327.2 208.7L324.3 210.1L321.8 211.5L319.5 212.8L316.9 214.3L314.7 215.7L312.5 217.2L309.9 218.9L308.0 220.2L305.8 221.9L303.3 223.8L301.3 225.4L299.4 227.0L297.5 228.6L295.5 230.4L293.5 232.3L291.6 234.2L289.7 236.1L287.9 237.9L286.0 240.0L284.1 242.2L282.2 244.4L280.6 246.4L279.1 248.3L277.4 250.6L275.7 253.0L274.4 254.9L272.6 257.6L271.3 259.7L269.8 262.2L268.5 264.4L267.0 267.2L265.9 269.3L264.6 271.9L263.3 274.8L262.1 277.5L261.2 279.8L260.2 282.3L259.1 285.2L258.1 288.0L257.2 290.8L256.4 293.8L255.4 297.3L254.7 300.3L254.1 303.1L253.5 306.2L252.9 309.7L252.5 312.5L252.1 316.3L251.7 320.1L251.6 322.9L251.4 326.7L251.4 330.5L251.4 334.2L251.6 337.7L251.8 340.9L252.2 344.6L252.5 347.7L253.1 351.2L253.6 354.1L254.3 357.9L254.9 360.7L255.6 363.5L256.4 366.4L257.3 369.5L258.3 372.5L259.2 375.2L260.2 377.8L261.3 380.5L262.5 383.3L263.7 386.2L265.0 388.8L266.0 390.9L267.5 393.7L268.8 396.1L270.2 398.5L271.7 400.9L273.1 403.2L274.5 405.3L276.3 407.9L277.7 409.8L279.3 412.0L281.2 414.4L282.9 416.4L284.5 418.3L286.2 420.2L287.9 422.1L289.9 424.1L291.8 426.0L293.7 427.9L295.6 429.7L297.6 431.5L299.8 433.4L302.1 435.3L304.2 436.9L306.1 438.4L308.4 440.0L310.9 441.8L312.8 443.1L315.4 444.7L317.6 446.1L320.1 447.6L322.4 448.8L325.3 450.4L327.2 451.3L330.0 452.7L332.9 454.0L335.4 455.1L337.7 456.1L340.6 457.2L343.4 458.2L346.3 459.2L349.2 460.1L352.0 460.9L354.9 461.7L358.7 462.7L361.6 463.3L364.5 463.9L368.3 464.5L371.2 464.9L375.0 465.4" pathLength="1" style="--i:7"/>
<path d="M278.1 660.0L275.5 658.7L272.6 657.3L270.5 656.2L267.9 654.8L265.1 653.4L263.1 652.3L260.2 650.7L258.2 649.6L255.4 648.0L253.2 646.8L250.6 645.2L248.5 643.9L245.9 642.4L243.9 641.1L241.1 639.4L239.2 638.1L236.5 636.4L234.4 635.0L232.3 633.6L229.6 631.7L227.7 630.4L225.5 628.8L222.9 627.0L221.0 625.6L219.0 624.1L216.5 622.2L214.3 620.5L212.4 619.0L210.4 617.5L208.1 615.6L205.7 613.7L203.8 612.1L201.8 610.5L199.9 608.8L197.9 607.1L195.8 605.2L193.7 603.3L191.6 601.5L189.5 599.6L187.5 597.7L185.6 595.9L183.7 594.0L181.8 592.1L179.8 590.2L177.9 588.3L176.0 586.4L174.2 584.5L172.4 582.6L170.6 580.7L168.9 578.8L167.2 576.9L165.5 575.0L163.6 572.9L161.7 570.7L159.8 568.5L158.1 566.5L156.5 564.6L155.0 562.7L153.1 560.4L151.2 558.0L149.7 556.1L148.3 554.2L146.4 551.7L144.7 549.5L143.3 547.6L141.6 545.2L139.9 542.9L138.6 541.0L136.8 538.4L135.3 536.3L133.9 534.2L132.2 531.6L131.0 529.7L129.2 526.9L128.0 525.0L126.3 522.2L125.1 520.3L123.4 517.4L122.3 515.5L120.7 512.7L119.6 510.7L118.0 508.0L116.7 505.5L115.5 503.3L114.0 500.4L112.9 498.2L111.6 495.7L110.2 492.9L109.1 490.5L107.9 488.2L106.6 485.3L105.3 482.5L104.3 480.2L103.2 477.8L102.0 474.9L100.8 472.1L99.6 469.3L98.5 466.6L97.6 464.2L96.6 461.7L95.6 458.9L94.5 456.1L93.5 453.2L92.5 450.4L91.6 447.6L90.6 444.7L89.7 441.9L88.8 439.1L88.0 436.2L87.1 433.1L86.1 429.7L85.3 426.8L84.5 423.9L83.8 421.1L83.1 418.3L82.3 414.9L81.5 411.7L80.9 408.8L80.3 406.0L79.5 402.2L79.0 399.4L78.4 396.6L77.8 392.8L77.3 390.0L76.7 386.2L76.3 383.3L75.7 379.6L75.4 376.7L74.9 373.0L74.6 370.1L74.2 366.4L73.9 362.6L73.6 359.7L73.3 356.0L73.1 352.2L72.9 348.4L72.7 344.6L72.6 341.8L72.5 338.0L72.4 334.2L72.4 330.5L72.4 326.7L72.5 322.9L72.6 319.1L72.7 315.4L72.8 312.5L73.0 308.8L73.3 305.0L73.5 301.2L73.8 298.4L74.1 294.6L74.5 290.8L74.8 288.0L75.3 284.2L75.6 281.4L76.1 277.6L76.6 274.8L77.1 271.0L77.6 268.2L78.3 264.4L78.8 261.5L79.4 258.4L80.1 254.9L80.7 252.1L81.3 249.3L82.2 245.5L82.9 242.7L83.6 239.8L84.3 237.0L85.1 233.7L86.1 230.4L86.9 227.6L87.7 224.7L88.5 221.9L89.4 219.1L90.3 216.2L91.3 213.4L92.2 210.6L93.2 207.7L94.2 204.9L95.2 202.1L96.3 199.2L97.4 196.4L98.5 193.6L99.5 191.0L100.4 188.7L101.6 186.0L102.8 183.2L104.0 180.3L105.2 177.6L106.2 175.5L107.5 172.8L108.8 170.0L110.0 167.5L111.1 165.2L112.6 162.4L113.8 159.9L115.0 157.7L116.5 154.8L117.7 152.7L119.1 150.1L120.5 147.6L121.8 145.4L123.4 142.6L124.5 140.7L126.3 137.9L127.4 136.0L129.1 133.2L130.4 131.2L132.0 128.7L133.5 126.5L134.9 124.4L136.6 121.8L137.9 119.9L139.7 117.4L141.3 115.2L142.6 113.3L144.4 110.8L146.1 108.6L147.5 106.7L149.2 104.5L151.1 102.0L152.7 100.1L154.2 98.2L155.9 96.1L157.8 93.8L159.7 91.6L161.3 89.7L163.0 87.8L164.6 85.9L166.5 83.9L168.4 81.8L170.3 79.7L172.2 77.6L174.1 75.6L176.0 73.6L177.9 71.8L179.7 69.9L181.6 68.0L183.6 66.1L185.5 64.2L187.5 62.3L189.4 60.5L191.3 58.8L193.2 57.0L195.2 55.3L197.1 53.6L199.0 51.9L201.2 50.0L203.5 48.2L205.7 46.3L207.6 44.8L209.5 43.2L211.6 41.5L214.0 39.7L216.2 38.0L218.1 36.5L220.3 34.9L222.8 33.0L224.8 31.6L226.8 30.2L229.5 28.3L231.5 26.9L233.7 25.5L236.3 23.7L238.2 22.5L240.9 20.8L243.0 19.4L245.4 17.9L247.8 16.5L250.0 15.1L252.5 13.6L254.9 12.3L257.3 10.9L259.9 9.4L262.1 8.2L265.0 6.7L266.9 5.7L269.8 4.2L272.4 2.8L274.5 1.7L277.4 0.3" pathLength="1" style="--i:8"/>
<path d="M586.9 0.0L589.3 1.2L592.1 2.6L594.4 3.8L596.9 5.1L599.7 6.6L601.7 7.7L604.6 9.3L606.5 10.4L609.4 12.0L611.4 13.2L614.1 14.9L616.1 16.1L618.9 17.9L620.8 19.1L623.5 20.8L625.6 22.2L627.8 23.6L630.4 25.4L632.3 26.7L634.6 28.3L637.1 30.1L639.0 31.5L641.1 33.0L643.6 34.9L645.7 36.6L647.6 38.0L649.7 39.7L652.0 41.5L654.3 43.4L656.2 45.0L658.2 46.6L660.1 48.3L662.1 50.0L664.2 51.9L666.3 53.8L668.4 55.7L670.4 57.6L672.4 59.5L674.4 61.4L676.3 63.3L678.2 65.2L680.1 67.0L681.9 68.9L683.7 70.8L685.5 72.7L687.2 74.6L689.0 76.5L690.7 78.4L692.6 80.5L694.5 82.7L696.4 85.0L698.0 86.9L699.6 88.8L701.2 90.8L703.1 93.2L704.9 95.4L706.3 97.3L707.9 99.3L709.8 101.9L711.3 103.9L712.7 105.8L714.6 108.5L715.9 110.5L717.5 112.7L719.1 115.2L720.4 117.1L722.2 119.9L723.4 121.8L725.1 124.5L726.3 126.5L728.0 129.3L729.1 131.2L730.8 134.1L731.8 136.0L733.4 138.8L734.7 141.1L735.9 143.5L737.4 146.4L738.5 148.5L739.8 151.1L741.2 153.9L742.3 156.4L743.4 158.6L744.7 161.5L745.9 164.3L747.1 167.0L748.1 169.3L749.1 171.8L750.3 174.7L751.4 177.5L752.4 180.3L753.5 183.2L754.5 186.0L755.5 188.8L756.4 191.7L757.4 194.5L758.3 197.3L759.1 200.2L760.0 203.0L760.8 205.8L761.6 208.7L762.4 211.9L763.3 215.3L764.0 218.1L764.7 220.9L765.3 223.8L766.1 227.6L766.7 230.4L767.3 233.2L768.0 237.0L768.5 239.8L769.1 243.6L769.6 246.4L770.1 249.8L770.5 253.0L771.0 256.7L771.4 259.7L771.8 263.4L772.1 266.3L772.5 270.0L772.9 273.8L773.1 276.7L773.4 280.4L773.7 284.2L773.9 287.8L774.1 290.8L774.3 294.6L774.4 298.4L774.6 302.1L774.7 305.9L774.8 309.7L774.9 312.5L775.0 316.3L775.0 320.1L775.0 323.9L775.1 327.6L775.1 331.4L775.1 335.2L775.0 339.0L775.0 342.7L774.9 346.5L774.8 349.4L774.7 353.1L774.6 356.9L774.5 360.7L774.3 364.5L774.1 368.2L773.9 372.0L773.7 374.8L773.5 378.6L773.2 382.4L772.9 385.4L772.6 389.0L772.2 392.8L771.9 395.6L771.5 399.4L771.0 403.2L770.7 406.0L770.1 409.8L769.7 412.6L769.1 416.4L768.6 419.2L768.1 422.1L767.4 425.8L766.9 428.7L766.3 431.8L765.5 435.3L764.9 438.1L764.2 440.9L763.4 444.3L762.6 447.6L761.8 450.4L761.0 453.2L760.2 456.1L759.4 458.9L758.5 461.7L757.6 464.6L756.7 467.6L755.7 470.4L754.8 473.2L753.8 475.9L752.8 478.7L751.7 481.5L750.6 484.4L749.5 487.2L748.3 490.0L747.2 492.9L746.2 495.2L745.1 497.6L743.8 500.4L742.5 503.3L741.4 505.7L740.3 508.0L738.9 510.8L737.6 513.4L736.4 515.5L734.9 518.4L733.7 520.6L732.4 523.1L730.9 525.8L729.7 527.8L728.0 530.6L726.9 532.5L725.2 535.4L724.0 537.3L722.2 540.0L721.0 542.0L719.4 544.4L717.9 546.7L716.5 548.7L714.6 551.4L713.3 553.3L711.7 555.5L709.9 558.0L708.5 559.9L706.9 561.9L705.0 564.4L703.4 566.5L701.9 568.4L700.2 570.4L698.3 572.7L696.4 575.0L694.8 576.9L693.2 578.8L691.5 580.7L689.7 582.7L687.8 584.8L685.9 586.9L684.0 588.9L682.1 590.9L680.2 592.9L678.2 594.8L676.3 596.7L674.4 598.6L672.5 600.4L670.6 602.2L668.7 604.0L666.8 605.8L664.8 607.5L662.9 609.2L661.0 610.9L658.8 612.8L656.6 614.7L654.3 616.6L652.4 618.1L650.5 619.7L648.5 621.3L646.1 623.2L643.8 624.9L641.9 626.4L639.8 627.9L637.2 629.8L635.2 631.3L633.3 632.6L630.5 634.5L628.5 635.9L626.4 637.3L623.7 639.1L621.8 640.3L619.1 642.1L617.0 643.3L614.5 644.9L612.2 646.3L609.8 647.7L607.5 649.1L604.8 650.6L602.7 651.8L599.8 653.3L597.9 654.4L595.0 655.9L592.5 657.2L590.2 658.3L587.4 659.8" pathLength="1" style="--i:9"/>
<path d="M377.9 455.2L381.7 455.5L385.5 455.8L389.3 455.9L393.2 456.0L397.0 455.9L400.8 455.7L404.6 455.4L407.7 455.1L411.3 454.6L414.4 454.2L418.0 453.5L420.9 452.9L423.8 452.3L427.5 451.3L430.5 450.5L433.3 449.6L436.2 448.7L439.1 447.7L441.9 446.6L444.3 445.7L446.7 444.6L449.6 443.4L452.5 442.0L454.6 440.9L457.3 439.6L460.0 438.1L462.0 436.9L464.8 435.3L466.8 434.0L469.3 432.4L471.6 430.9L473.5 429.6L476.1 427.7L478.3 426.0L480.2 424.5L482.1 423.0L484.4 421.1L486.6 419.2L488.7 417.3L490.7 415.5L492.7 413.6L494.6 411.8L496.5 409.8L498.3 407.9L500.1 406.0L501.8 404.1L503.5 402.2L505.1 400.3L507.0 398.0L508.9 395.7L510.5 393.7L511.9 391.8L513.7 389.5L515.4 387.1L516.8 385.2L518.5 382.8L520.1 380.5L521.4 378.6L523.2 375.8L524.4 373.9L526.1 371.2L527.4 369.2L529.0 366.6L530.3 364.5L531.9 361.8L533.1 359.7L534.7 357.0L535.9 355.0L537.5 352.2L538.7 350.3L540.3 347.5L541.4 345.5L543.1 342.7L544.3 340.6L545.9 338.0L547.2 335.8L548.8 333.3L550.1 331.1L550.0 328.6L548.2 325.8L547.0 323.9L545.3 321.0L544.2 319.1L542.5 316.3L541.4 314.4L539.8 311.6L538.6 309.6L537.0 306.9L535.7 304.7L534.2 302.1L532.8 299.8L531.4 297.4L530.0 295.0L528.6 292.7L527.1 290.4L525.6 288.0L524.2 285.8L522.6 283.3L521.3 281.4L519.4 278.6L518.1 276.7L516.6 274.5L514.7 271.9L513.3 270.0L511.8 268.0L509.9 265.5L508.2 263.4L506.7 261.5L505.1 259.7L503.2 257.5L501.3 255.3L499.4 253.2L497.4 251.2L495.6 249.3L493.7 247.4L491.8 245.5L489.8 243.6L487.9 241.9L486.0 240.2L484.0 238.6L482.1 237.0L479.8 235.1L477.4 233.2L475.4 231.8L473.4 230.4L470.7 228.5L468.7 227.2L466.3 225.7L464.0 224.2L461.6 222.8L459.2 221.5L456.5 220.0L454.4 218.9L451.5 217.5L448.7 216.2L446.5 215.3L443.9 214.2L441.0 213.0L438.1 212.0L435.3 211.0L432.4 210.1L429.5 209.2L426.7 208.4L423.8 207.7L420.0 206.9L417.1 206.3L414.2 205.8L410.4 205.2L407.5 204.9L403.7 204.5L399.9 204.2L396.0 204.1L392.2 204.0L388.4 204.1L384.6 204.3L380.7 204.5L377.4 204.9L374.0 205.3L370.7 205.8L367.3 206.4L364.5 207.0L361.4 207.7L357.8 208.7L354.9 209.5L352.0 210.4L349.2 211.3L346.3 212.4L343.7 213.4L341.4 214.3L338.6 215.5L335.8 216.9L333.3 218.1L331.0 219.3L328.1 220.9L326.2 222.0L323.3 223.7L321.4 225.0L318.9 226.6L316.6 228.2L314.7 229.6L312.5 231.3L310.1 233.2L308.0 235.0L306.1 236.6L304.2 238.4L302.3 240.2L300.4 242.1L298.5 244.1L296.6 246.1L294.6 248.3L293.0 250.2L291.5 252.1L289.9 254.2L287.9 256.7L286.5 258.7L285.1 260.9L283.4 263.4L282.2 265.4L280.6 268.2L279.3 270.4L278.0 272.9L276.6 275.7L275.5 278.0L274.4 280.4L273.2 283.3L272.1 286.1L271.1 288.9L270.1 291.8L269.3 294.6L268.4 297.4L267.7 300.3L266.9 303.8L266.3 306.9L265.8 309.7L265.2 313.5L264.9 316.3L264.5 320.1L264.3 323.9L264.1 327.6L264.1 331.4L264.2 335.2L264.4 339.0L264.8 342.7L265.1 345.6L265.6 349.4L266.1 352.2L266.8 356.0L267.5 358.8L268.2 361.6L269.0 364.5L269.8 367.3L270.8 370.1L271.8 373.0L272.8 375.8L274.0 378.6L275.2 381.5L276.5 384.0L277.5 386.2L279.0 389.0L280.3 391.4L281.7 393.7L283.2 396.2L284.6 398.5L286.0 400.5L287.9 403.2L289.3 405.1L290.8 407.1L292.7 409.4L294.6 411.7L296.3 413.6L298.0 415.5L299.8 417.3L301.7 419.2L303.7 421.1L305.7 423.0L307.9 424.9L309.9 426.6L311.9 428.2L313.8 429.7L316.3 431.5L318.6 433.1L320.5 434.4L323.3 436.2L325.3 437.4L328.0 439.1L330.0 440.2L332.9 441.7L335.2 442.8L337.7 444.0L340.6 445.3L343.4 446.5L346.1 447.6L348.7 448.5L351.5 449.4L354.5 450.4L357.8 451.3L360.6 452.1L363.5 452.8L366.4 453.4L370.2 454.1L373.1 454.5L376.9 455.1" pathLength="1" style="--i:10"/>
<path d="M628.5 384.3L631.4 384.3L635.2 384.0L639.0 383.6L641.9 383.1L645.0 382.4L648.4 381.5L651.2 380.5L653.7 379.6L656.2 378.5L659.1 377.1L661.4 375.8L663.9 374.3L665.9 373.0L668.4 371.1L670.6 369.3L672.5 367.6L674.4 365.7L676.3 363.6L678.0 361.6L679.4 359.7L681.1 357.3L682.5 355.0L684.0 352.3L684.9 350.3L686.1 347.5L687.1 344.6L687.9 341.8L688.7 338.0L689.1 335.2L689.3 331.4L689.3 327.6L689.0 323.9L688.5 321.0L687.8 317.9L686.9 314.7L685.9 312.0L684.9 309.7L683.5 306.9L682.1 304.3L680.7 302.1L679.2 300.0L677.3 297.5L675.6 295.5L673.8 293.6L671.8 291.8L669.6 289.9L667.7 288.4L665.8 287.0L663.0 285.2L661.0 284.0L658.2 282.4L655.9 281.4L653.4 280.3L650.5 279.2L647.6 278.3L644.8 277.5L640.9 276.7L638.1 276.3L634.2 275.9L630.5 275.7L628.0 275.7L624.7 275.8L620.8 276.2L617.8 276.7L614.1 277.4L611.3 278.1L608.4 278.9L605.5 279.9L602.7 280.9L599.8 282.2L597.5 283.3L595.0 284.5L592.2 286.1L590.2 287.3L587.7 288.9L585.5 290.5L583.5 291.9L581.3 293.6L579.1 295.5L576.9 297.4L574.9 299.3L573.0 301.2L571.1 303.1L569.4 305.0L567.7 306.9L566.1 308.8L564.4 310.8L562.5 313.2L560.8 315.4L559.4 317.3L557.7 319.6L556.1 322.0L554.8 323.9L552.9 326.7L551.6 328.6L552.0 331.8L553.5 334.2L554.8 336.2L556.7 339.0L558.0 340.9L559.6 343.0L561.5 345.6L563.0 347.5L564.5 349.4L566.3 351.5L568.2 353.7L570.1 355.8L572.1 357.9L573.9 359.7L575.9 361.6L577.8 363.3L579.7 365.0L581.6 366.6L583.8 368.2L586.4 370.1L588.3 371.5L590.7 373.0L593.1 374.4L595.6 375.8L597.9 376.9L600.8 378.2L603.6 379.4L606.5 380.5L609.4 381.4L612.2 382.2L615.1 382.8L618.0 383.4L621.8 383.9L625.6 384.2L628.5 384.3" pathLength="1" style="--i:11"/>
<path d="M224.3 660.0L221.9 658.5L219.9 657.2L217.2 655.3L215.2 654.0L212.9 652.4L210.5 650.7L208.5 649.4L206.3 647.7L203.8 645.9L201.8 644.5L199.9 643.0L197.4 641.1L195.2 639.4L193.2 637.9L191.3 636.4L189.0 634.5L186.7 632.6L184.6 630.9L182.7 629.3L180.8 627.6L178.9 626.0L176.8 624.1L174.7 622.2L172.6 620.3L170.5 618.5L168.5 616.6L166.5 614.7L164.5 612.8L162.6 611.0L160.7 609.1L158.8 607.2L156.9 605.3L155.0 603.3L153.2 601.5L151.4 599.6L149.6 597.7L147.9 595.8L146.2 593.9L144.4 592.0L142.5 589.8L140.6 587.7L138.7 585.4L137.1 583.5L135.5 581.6L133.9 579.7L132.0 577.4L130.1 575.0L128.6 573.1L127.1 571.2L125.3 568.9L123.5 566.5L122.1 564.6L120.5 562.5L118.6 559.9L117.3 558.0L115.8 555.8L114.0 553.3L112.7 551.4L111.0 548.9L109.5 546.7L108.1 544.5L106.5 542.0L105.2 540.0L103.5 537.3L102.3 535.4L100.6 532.5L99.5 530.6L97.8 527.8L96.6 525.7L95.1 523.1L93.7 520.7L92.5 518.4L91.0 515.5L89.9 513.6L88.5 510.8L87.1 508.0L86.1 506.1L84.7 503.3L83.3 500.4L82.3 498.3L81.1 495.7L79.8 492.9L78.5 490.0L77.5 487.7L76.4 485.3L75.2 482.5L74.1 479.7L72.9 476.8L71.8 474.0L70.8 471.4L69.8 468.9L68.9 466.3L67.9 463.6L66.9 460.8L65.9 457.9L64.9 455.1L64.0 452.3L63.1 449.4L62.2 446.6L61.2 443.5L60.3 440.2L59.4 437.2L58.6 434.3L57.8 431.5L57.1 428.7L56.4 425.8L55.5 422.2L54.8 419.2L54.1 416.4L53.5 413.6L52.7 409.8L52.1 407.0L51.6 404.1L50.9 400.3L50.4 397.5L49.7 393.8L49.3 390.9L48.8 387.7L48.3 384.3L47.8 380.8L47.4 377.7L47.0 373.9L46.7 371.1L46.3 367.3L46.0 363.5L45.7 360.7L45.5 356.9L45.2 353.1L45.0 349.4L44.9 346.5L44.8 342.7L44.6 339.0L44.6 335.2L44.5 331.4L44.6 327.6L44.6 323.9L44.7 320.1L44.8 316.3L44.9 312.5L45.1 309.7L45.3 305.9L45.5 302.1L45.8 298.4L46.1 295.5L46.4 291.8L46.8 288.0L47.1 285.2L47.6 281.4L47.9 278.5L48.4 274.8L48.8 271.9L49.4 268.2L49.9 265.3L50.5 261.5L51.0 258.7L51.7 255.4L52.3 252.1L52.9 249.3L53.6 246.1L54.3 242.7L55.0 239.8L55.7 237.0L56.4 233.9L57.3 230.4L58.1 227.6L58.9 224.7L59.7 221.9L60.5 219.1L61.3 216.2L62.2 213.4L63.1 210.4L64.1 207.4L65.1 204.5L66.0 201.7L67.0 199.0L67.9 196.3L68.9 193.6L70.0 190.7L71.1 187.9L72.2 185.1L73.3 182.2L74.5 179.4L75.6 176.7L76.5 174.5L77.7 171.8L78.9 169.0L80.2 166.2L81.3 163.8L82.4 161.5L83.8 158.6L85.1 155.8L86.1 153.9L87.5 151.1L89.0 148.3L90.0 146.4L91.5 143.5L92.8 141.1L94.1 138.8L95.6 136.0L96.7 134.1L98.4 131.2L99.5 129.3L101.2 126.5L102.4 124.6L104.1 121.8L105.3 119.9L107.1 117.1L108.3 115.2L110.0 112.6L111.4 110.5L112.9 108.3L114.6 105.8L116.0 103.9L117.7 101.5L119.3 99.1L120.7 97.3L122.4 94.9L124.2 92.5L125.7 90.6L127.2 88.6L129.1 86.2L130.9 84.0L132.4 82.1L133.9 80.3L135.8 77.9L137.8 75.7L139.5 73.6L141.1 71.8L142.8 69.9L144.5 68.0L146.4 65.9L148.3 63.8L150.2 61.7L152.1 59.7L154.0 57.7L155.9 55.7L157.8 53.8L159.7 51.9L161.6 50.0L163.5 48.2L165.5 46.3L167.4 44.4L169.3 42.6L171.2 40.9L173.1 39.1L175.1 37.4L177.0 35.7L178.9 34.0L181.1 32.1L183.3 30.2L185.6 28.3L187.5 26.7L189.4 25.2L191.4 23.6L193.8 21.7L196.1 19.9L198.0 18.4L199.9 17.0L202.4 15.1L204.7 13.4L206.6 12.0L208.9 10.4L211.4 8.6L213.3 7.3L215.7 5.7L218.1 4.0L220.0 2.8L222.8 0.9" pathLength="1" style="--i:12"/>
<path d="M638.7 0.0L640.9 1.5L642.9 2.8L645.7 4.7L647.6 6.0L649.8 7.6L652.4 9.4L654.3 10.8L656.4 12.3L658.9 14.2L661.0 15.8L662.9 17.2L665.1 18.9L667.5 20.8L669.6 22.5L671.5 24.1L673.5 25.6L675.5 27.4L677.8 29.3L679.9 31.2L682.1 33.0L684.0 34.7L685.9 36.5L687.8 38.2L689.7 40.0L691.6 41.8L693.5 43.6L695.5 45.5L697.4 47.3L699.3 49.3L701.2 51.2L703.1 53.2L705.0 55.2L706.9 57.2L708.9 59.2L710.8 61.3L712.5 63.3L714.2 65.2L715.8 67.0L717.5 68.9L719.4 71.2L721.3 73.4L723.0 75.5L724.6 77.4L726.1 79.3L728.0 81.7L729.8 84.0L731.2 85.9L732.8 88.0L734.7 90.5L736.1 92.5L737.6 94.5L739.5 97.2L740.8 99.1L742.3 101.3L744.0 103.9L745.3 105.8L747.1 108.5L748.4 110.5L750.0 113.0L751.3 115.2L752.9 117.7L754.2 119.9L755.7 122.5L757.0 124.6L758.6 127.5L759.7 129.4L761.2 132.2L762.4 134.4L763.8 136.9L765.2 139.7L766.3 141.7L767.6 144.5L769.0 147.3L770.1 149.5L771.3 152.0L772.6 154.8L773.9 157.7L774.9 159.9L776.0 162.4L777.2 165.2L778.4 168.1L779.5 170.9L780.6 173.6L781.6 176.0L782.5 178.5L783.6 181.3L784.6 184.1L785.6 187.0L786.6 189.8L787.5 192.6L788.5 195.5L789.4 198.3L790.3 201.1L791.1 203.9L792.1 207.1L793.0 210.4L793.9 213.4L794.6 216.2L795.4 219.1L796.1 221.9L796.9 225.1L797.7 228.5L798.3 231.3L798.9 234.2L799.7 237.9L800.3 240.8L800.9 243.6L801.6 247.4L802.1 250.2L802.6 253.2L803.2 256.8L803.6 259.7L804.2 263.4L804.6 266.3L805.1 270.0L805.5 272.9L805.9 276.7L806.3 280.4L806.6 283.3L807.0 287.0L807.3 290.8L807.5 293.6L807.8 297.4L808.0 301.2L808.2 305.0L808.4 307.8L808.5 311.6L808.7 315.4L808.8 319.1L808.8 322.9L808.9 326.7L808.9 330.5L808.9 334.2L808.8 338.0L808.7 341.8L808.6 345.6L808.5 349.4L808.3 353.0L808.2 356.0L808.0 359.7L807.7 363.5L807.4 367.3L807.2 370.1L806.9 373.9L806.5 377.7L806.2 380.5L805.8 384.3L805.5 387.1L805.0 390.9L804.5 394.4L804.1 397.5L803.6 400.9L803.1 404.1L802.6 407.0L801.9 410.7L801.4 413.6L800.7 417.3L800.1 420.2L799.5 423.0L798.8 426.6L798.1 429.6L797.5 432.4L796.8 435.3L795.9 438.8L795.1 441.9L794.4 444.7L793.6 447.6L792.8 450.4L792.0 453.2L791.1 456.1L790.2 459.3L789.2 462.3L788.3 465.2L787.3 468.1L786.3 470.9L785.4 473.7L784.4 476.3L783.5 478.9L782.5 481.5L781.4 484.4L780.3 487.2L779.1 490.0L778.0 492.9L776.8 495.7L775.8 498.0L774.7 500.4L773.5 503.3L772.2 506.1L771.0 508.5L769.9 510.8L768.6 513.6L767.2 516.4L766.2 518.4L764.7 521.2L763.4 523.8L762.2 525.9L760.7 528.8L759.6 530.8L758.1 533.5L756.7 535.9L755.3 538.2L753.8 540.7L752.5 542.9L750.9 545.4L749.6 547.6L748.1 550.0L746.5 552.4L745.2 554.4L743.4 557.1L742.1 559.0L740.4 561.4L738.8 563.7L737.5 565.6L735.6 568.2L734.1 570.3L732.7 572.2L730.9 574.6L729.1 576.9L727.6 578.8L726.1 580.7L724.2 583.1L722.3 585.4L720.7 587.3L719.1 589.2L717.5 591.1L715.6 593.3L713.6 595.5L711.7 597.6L709.9 599.6L708.2 601.5L706.4 603.3L704.7 605.2L702.8 607.1L701.0 609.0L699.1 610.9L697.2 612.8L695.3 614.7L693.4 616.6L691.4 618.5L689.4 620.3L687.3 622.2L685.3 624.1L683.2 626.0L681.1 627.8L679.2 629.5L677.3 631.1L675.4 632.8L673.3 634.5L671.0 636.4L668.7 638.3L666.8 639.8L664.8 641.3L662.6 643.0L660.2 644.9L658.2 646.4L656.2 647.8L653.8 649.6L651.5 651.3L649.5 652.6L647.1 654.3L644.8 655.9L642.8 657.2L640.1 659.1" pathLength="1" style="--i:13"/>
<path d="M385.5 443.8L389.3 444.0L393.2 444.1L397.0 444.0L400.8 443.8L403.7 443.6L407.5 443.2L410.6 442.8L414.2 442.3L417.1 441.7L420.7 440.9L423.8 440.2L426.7 439.4L429.5 438.5L432.4 437.6L435.3 436.6L438.1 435.5L441.0 434.3L443.1 433.4L445.8 432.2L448.7 430.8L450.9 429.6L453.4 428.2L455.9 426.8L458.2 425.4L460.5 423.9L463.0 422.3L464.9 420.9L467.3 419.2L469.7 417.4L471.6 415.8L473.5 414.3L475.4 412.6L477.5 410.7L479.6 408.8L481.5 407.0L483.4 405.1L485.2 403.2L486.9 401.2L488.8 399.1L490.7 396.8L492.4 394.7L493.9 392.8L495.5 390.6L497.3 388.1L498.6 386.2L500.3 383.6L501.7 381.5L503.2 378.9L504.4 376.7L505.9 373.9L507.0 371.8L508.3 369.2L509.6 366.4L510.8 363.5L511.8 361.0L512.7 358.4L513.7 355.6L514.7 352.4L515.5 349.4L516.1 346.5L516.7 343.7L517.3 339.9L517.6 337.1L517.9 333.3L517.9 329.5L517.8 325.8L517.5 322.2L517.2 319.1L516.6 315.6L515.9 312.5L515.2 309.7L514.5 306.9L513.6 304.0L512.6 301.2L511.6 298.4L510.4 295.5L509.2 292.7L508.0 290.1L506.9 288.0L505.4 285.2L504.1 282.8L502.8 280.4L501.3 277.9L499.9 275.7L498.4 273.5L496.7 271.0L495.3 269.1L493.6 266.8L491.7 264.4L490.1 262.5L488.5 260.6L486.9 258.7L485.0 256.7L483.1 254.7L481.2 252.7L479.3 250.9L477.4 249.1L475.4 247.4L473.2 245.5L470.9 243.6L468.7 241.9L466.8 240.5L464.7 238.9L462.0 237.1L460.1 235.8L457.5 234.2L455.4 232.9L452.6 231.3L450.6 230.2L447.7 228.8L445.2 227.6L442.9 226.5L440.0 225.3L437.2 224.1L434.3 223.1L431.4 222.1L428.6 221.2L425.7 220.3L422.8 219.6L420.0 218.9L416.2 218.1L413.3 217.6L410.4 217.1L406.6 216.7L402.7 216.3L399.9 216.1L396.0 216.0L392.2 215.9L388.4 216.1L385.4 216.2L381.7 216.5L377.9 217.0L375.0 217.4L371.2 218.1L368.3 218.7L365.4 219.3L362.6 220.1L359.5 220.9L356.5 221.9L353.8 222.8L351.1 223.8L348.2 225.0L345.3 226.2L342.5 227.6L340.6 228.5L337.7 230.0L335.4 231.3L332.9 232.8L330.7 234.2L328.1 235.8L326.2 237.1L323.8 238.9L321.4 240.7L319.5 242.2L317.6 243.8L315.7 245.5L313.7 247.4L311.7 249.3L309.8 251.2L308.0 253.1L306.1 255.2L304.2 257.4L302.4 259.7L300.9 261.5L299.4 263.6L297.5 266.3L296.3 268.2L294.6 270.7L293.3 272.9L291.8 275.7L290.7 277.6L289.3 280.4L288.0 283.3L287.0 285.5L285.9 288.0L284.9 290.8L283.9 293.6L282.9 296.5L282.1 299.3L281.2 302.5L280.4 305.9L279.9 308.8L279.3 311.7L278.8 315.4L278.4 319.1L278.1 322.0L277.9 325.8L277.8 329.5L277.9 333.3L278.1 337.1L278.4 340.9L278.7 343.7L279.2 347.5L279.7 350.3L280.3 353.4L281.1 356.9L281.8 359.7L282.6 362.6L283.5 365.4L284.5 368.2L285.6 371.1L286.7 373.9L287.9 376.7L288.9 378.7L290.2 381.5L291.7 384.3L292.8 386.2L294.5 389.0L295.7 390.9L297.5 393.7L298.8 395.6L300.4 397.7L302.3 400.2L303.9 402.2L305.5 404.1L307.2 406.0L309.0 408.0L310.9 409.9L312.8 411.8L314.7 413.6L316.8 415.5L319.0 417.3L321.3 419.2L323.3 420.8L325.3 422.2L327.8 423.9L330.0 425.4L332.2 426.8L334.8 428.4L337.0 429.6L339.6 431.0L342.5 432.4L344.5 433.4L347.3 434.6L350.1 435.8L353.0 436.9L355.9 437.9L358.7 438.8L361.6 439.7L364.5 440.4L367.3 441.1L371.0 441.9L374.0 442.4L376.9 442.9L380.7 443.4L384.6 443.7" pathLength="1" style="--i:14"/>
<path d="M620.8 373.9L624.7 374.4L628.5 374.5L632.3 374.3L635.6 373.9L639.0 373.3L641.9 372.5L644.8 371.6L647.6 370.4L650.3 369.2L652.4 368.0L655.1 366.4L657.2 364.9L659.1 363.3L661.0 361.6L662.9 359.7L664.8 357.5L666.8 355.0L668.1 353.1L669.6 350.5L670.7 348.4L671.9 345.6L672.9 342.7L673.7 339.9L674.4 336.1L674.7 333.3L674.9 329.5L674.7 325.8L674.3 322.9L673.5 319.2L672.6 316.3L671.5 313.5L670.6 311.4L669.2 308.8L667.7 306.3L666.1 304.0L664.6 302.1L662.9 300.3L661.0 298.4L658.9 296.5L656.4 294.6L654.3 293.1L652.0 291.8L649.5 290.4L646.7 289.2L643.8 288.1L640.9 287.2L638.1 286.5L635.2 286.0L631.4 285.6L627.5 285.5L623.7 285.7L620.6 286.1L617.0 286.8L614.1 287.5L611.3 288.4L608.4 289.5L605.6 290.8L603.6 291.8L600.8 293.5L598.8 294.8L596.6 296.5L594.3 298.4L592.3 300.3L590.5 302.1L588.8 304.0L587.4 305.9L585.5 308.7L584.3 310.6L582.8 313.5L581.6 316.3L580.7 319.1L579.9 322.0L579.4 324.8L579.1 328.6L579.1 332.4L579.6 336.1L580.1 339.0L581.0 341.8L582.0 344.6L583.3 347.5L584.5 349.7L586.0 352.2L587.4 354.1L589.3 356.5L591.2 358.6L593.1 360.5L595.0 362.2L596.9 363.8L599.1 365.4L601.7 367.1L603.8 368.2L606.5 369.6L609.4 370.9L612.2 371.9L615.1 372.8L618.0 373.4L620.8 373.9" pathLength="1" style="--i:15"/>
</g>
<circle class="sun" cx="395.1" cy="330.0" r="10" fill="#dda25b"/>
<circle class="planet" cx="627.6" cy="330.0" r="5" fill="#7db3e0"/>
<g class="lpoints" font-family="Georgia, 'Times New Roman', serif" font-style="italic" font-size="19" fill="#dda25b">
<circle cx="550.8" cy="330.0" r="3.2" fill="#dda25b"/>
<text x="558.8" y="320.0">L<tspan font-size="13" dy="4">1</tspan></text>
<circle cx="725.3" cy="330.0" r="3.2" fill="#dda25b"/>
<text x="735.3" y="320.0">L<tspan font-size="13" dy="4">2</tspan></text>
<circle cx="183.1" cy="330.0" r="3.2" fill="#dda25b"/>
<text x="153.1" y="320.0">L<tspan font-size="13" dy="4">3</tspan></text>
<circle cx="511.4" cy="128.7" r="3.2" fill="#dda25b"/>
<text x="521.4" y="120.7">L<tspan font-size="13" dy="4">4</tspan></text>
<circle cx="511.4" cy="531.3" r="3.2" fill="#dda25b"/>
<text x="521.4" y="547.3">L<tspan font-size="13" dy="4">5</tspan></text>
</g></svg>